<?xml version="1.0" encoding="UTF-8" standalone="no"?>
<svg
   width="535.37402"
   height="116.231"
   viewBox="0 0 535.374 116.231"
   version="1.1"
   id="svg4"
   sodipodi:docname="szechenyi-2020-border.svg"
   inkscape:version="1.3.2 (091e20e, 2023-11-25)"
   xmlns:inkscape="http://www.inkscape.org/namespaces/inkscape"
   xmlns:sodipodi="http://sodipodi.sourceforge.net/DTD/sodipodi-0.dtd"
   xmlns="http://www.w3.org/2000/svg"
   xmlns:svg="http://www.w3.org/2000/svg">
  <sodipodi:namedview
     id="namedview4"
     pagecolor="#ffffff"
     bordercolor="#000000"
     borderopacity="0.25"
     inkscape:showpageshadow="2"
     inkscape:pageopacity="0.0"
     inkscape:pagecheckerboard="0"
     inkscape:deskcolor="#d1d1d1"
     inkscape:zoom="1.8794864"
     inkscape:cx="205.10923"
     inkscape:cy="61.452959"
     inkscape:window-width="1792"
     inkscape:window-height="1120"
     inkscape:window-x="0"
     inkscape:window-y="0"
     inkscape:window-maximized="0"
     inkscape:current-layer="svg4" />
  <defs
     id="defs4">
    <clipPath
       id="clip-path">
      <rect
         id="Rectangle_14792"
         data-name="Rectangle 14792"
         width="213.823"
         height="72.760002"
         fill="none"
         x="0"
         y="0" />
    </clipPath>
    <clipPath
       id="clip-path-2">
      <path
         id="Path_35096"
         data-name="Path 35096"
         d="m 570.562,0 a 26.566,26.566 0 0 0 -26.536,26.537 c 0,8.927 6.869,19.649 8.662,22.451 1.793,2.802 16.412,23.772 17.87,23.772 v 0 z"
         transform="translate(-544.026)"
         fill="none" />
    </clipPath>
    <linearGradient
       id="linear-gradient"
       x1="-266.19098"
       y1="43.940407"
       x2="-265.70764"
       y2="43.940407"
       gradientUnits="userSpaceOnUse"
       gradientTransform="scale(0.60390882,1.6558791)">
      <stop
         offset="0"
         stop-color="#183ca3"
         id="stop1" />
      <stop
         offset="0.56"
         stop-color="#1e44a9"
         id="stop2" />
      <stop
         offset="0.859"
         stop-color="#244bae"
         id="stop3" />
      <stop
         offset="1"
         stop-color="#244bae"
         id="stop4" />
    </linearGradient>
  </defs>
  <g
     id="sz2020-mok-eu"
     transform="translate(-101.35879,-42.46794)">
    <rect
       id="Rectangle_14955"
       data-name="Rectangle 14955"
       width="114.638"
       height="0.852"
       transform="rotate(-90,254.054,-96.415)"
       fill="#003399"
       x="0"
       y="0" />
    <g
       id="sz2020logo"
       transform="translate(112,63.619)">
      <g
         id="Group_33541"
         data-name="Group 33541">
        <g
           id="Group_33540"
           data-name="Group 33540"
           clip-path="url(#clip-path)">
          <path
             id="Path_35094"
             data-name="Path 35094"
             d="m 570.562,0 a 26.566,26.566 0 0 0 -26.537,26.537 c 0,8.927 6.869,19.649 8.662,22.451 1.793,2.802 16.413,23.772 17.87,23.772 h 0.009 c 1.459,0 16.076,-20.97 17.869,-23.772 1.793,-2.802 8.665,-13.524 8.665,-22.451 A 26.565,26.565 0 0 0 570.562,0"
             transform="translate(-383.274)"
             fill="#244bae" />
          <path
             id="Path_35095"
             data-name="Path 35095"
             d="m 647.953,185.333 c -4.883,6.973 -12.508,17.51 -13.83,17.98 l 15.288,-5.337 a 9.685,9.685 0 0 0 5.268,-3.458 c 2.265,-3.443 -0.774,-7.362 -6.726,-9.186"
             transform="translate(-446.75,-130.57)"
             fill="#a9a8a9" />
        </g>
      </g>
      <g
         id="Group_33543"
         data-name="Group 33543"
         transform="translate(160.751)">
        <g
           id="Group_33542"
           data-name="Group 33542"
           clip-path="url(#clip-path-2)">
          <rect
             id="Rectangle_14793"
             data-name="Rectangle 14793"
             width="26.535999"
             height="72.760002"
             fill="url(#linear-gradient)"
             x="0"
             y="0"
             style="fill:url(#linear-gradient)" />
        </g>
      </g>
      <g
         id="Group_33545"
         data-name="Group 33545">
        <g
           id="Group_33544"
           data-name="Group 33544"
           clip-path="url(#clip-path)">
          <path
             id="Path_35097"
             data-name="Path 35097"
             d="m 566.317,68.361 q 0.016,0.262 0.016,0.507 a 3.894,3.894 0 0 1 -1.307,2.843 l -4.967,4.754 h 6.078 v 1.16 h -7.793 v -1.17 l 5.751,-5.528 a 2.892,2.892 0 0 0 1,-2.288 2.708,2.708 0 0 0 -2.672,-2.565 2.724,2.724 0 0 0 -1.931,0.776 2.481,2.481 0 0 0 -0.822,1.87 v 0.425 h -1.241 V 68.72 a 3.625,3.625 0 0 1 1.2,-2.745 3.925,3.925 0 0 1 2.818,-1.111 3.868,3.868 0 0 1 3.872,3.5"
             transform="translate(-393.362,-45.698)"
             fill="#ffffff" />
          <path
             id="Path_35098"
             data-name="Path 35098"
             d="m 602.4,71.277 a 6.624,6.624 0 0 1 -6.584,6.616 6.524,6.524 0 0 1 -4.648,-1.87 6,6 0 0 1 -1.968,-4.523 6.364,6.364 0 0 1 1.92,-4.648 6.267,6.267 0 0 1 4.616,-1.936 6.615,6.615 0 0 1 4.672,1.83 6,6 0 0 1 1.993,4.526 m -1.241,0.082 a 4.992,4.992 0 0 0 -1.608,-3.709 5.3,5.3 0 0 0 -3.792,-1.519 5.247,5.247 0 0 0 -3.719,8.986 5.35,5.35 0 0 0 7.552,0.016 4.989,4.989 0 0 0 1.567,-3.774"
             transform="translate(-415.099,-45.738)"
             fill="#ffffff" />
          <path
             id="Path_35099"
             data-name="Path 35099"
             d="m 647.928,68.361 c 0.01,0.175 0.016,0.343 0.016,0.507 a 3.893,3.893 0 0 1 -1.307,2.843 l -4.967,4.754 h 6.078 v 1.16 h -7.793 v -1.17 l 5.751,-5.528 a 2.893,2.893 0 0 0 1,-2.288 2.651,2.651 0 0 0 -0.831,-1.813 2.621,2.621 0 0 0 -1.841,-0.752 2.722,2.722 0 0 0 -1.93,0.776 2.481,2.481 0 0 0 -0.823,1.87 v 0.425 H 640.04 V 68.72 a 3.623,3.623 0 0 1 1.2,-2.745 3.923,3.923 0 0 1 2.818,-1.111 3.87,3.87 0 0 1 3.873,3.5"
             transform="translate(-450.858,-45.698)"
             fill="#ffffff" />
          <path
             id="Path_35100"
             data-name="Path 35100"
             d="m 682.88,71.277 a 6.623,6.623 0 0 1 -6.584,6.616 6.524,6.524 0 0 1 -4.648,-1.87 6.006,6.006 0 0 1 -1.968,-4.518 6.366,6.366 0 0 1 1.919,-4.648 6.268,6.268 0 0 1 4.616,-1.936 6.618,6.618 0 0 1 4.673,1.83 6,6 0 0 1 1.993,4.526 m -1.241,0.082 a 4.989,4.989 0 0 0 -1.607,-3.709 5.3,5.3 0 0 0 -3.793,-1.519 5.247,5.247 0 0 0 -3.72,8.986 5.35,5.35 0 0 0 7.553,0.016 4.985,4.985 0 0 0 1.567,-3.774"
             transform="translate(-471.799,-45.738)"
             fill="#ffffff" />
          <path
             id="Path_35101"
             data-name="Path 35101"
             d="m 0,70.388 3.189,-2.221 a 6.935,6.935 0 0 0 4.83,2.246 4.274,4.274 0 0 0 1.969,-0.454 1.78,1.78 0 0 0 1.149,-1.615 q 0,-1.262 -1.875,-1.59 L 5.792,66.148 Q 1.008,65.315 1.008,61.2 a 5.621,5.621 0 0 1 2.087,-4.694 7.433,7.433 0 0 1 4.736,-1.438 9.164,9.164 0 0 1 7.362,3.457 l -3.154,2.463 A 5.391,5.391 0 0 0 7.553,58.7 2.771,2.771 0 0 0 6.003,59.18 1.559,1.559 0 0 0 5.181,60.518 q 0,1.312 2.321,1.716 l 1.594,0.277 A 10.925,10.925 0 0 1 13.388,64 4.182,4.182 0 0 1 15.17,67.634 5.652,5.652 0 0 1 12.521,72.858 9.475,9.475 0 0 1 7.527,74.044 9.558,9.558 0 0 1 0,70.388"
             transform="translate(0,-38.797)"
             fill="#404041" />
          <path
             id="Path_35102"
             data-name="Path 35102"
             d="m 67.81,71.264 h 9.12 v 3.483 H 62.6 V 71.39 l 9.284,-11.13 h -8.552 v -3.482 h 13.645 v 3.508 z"
             transform="translate(-44.106,-40.001)"
             fill="#404041" />
          <path
             id="Path_35103"
             data-name="Path 35103"
             d="M 138.435,60.425 H 125.446 V 42.456 h 12.286 v 3.483 h -8.112 v 3.281 h 7.573 v 3.48 h -7.573 v 4.24 h 8.815 z m -8.6,-20.19 2.321,-3.785 h 4.244 l -3.752,3.785 z"
             transform="translate(-88.379,-25.68)"
             fill="#404041" />
          <path
             id="Path_35104"
             data-name="Path 35104"
             d="m 195.057,59.764 -3.329,1.792 a 4.021,4.021 0 0 0 -1.395,-1.969 3.393,3.393 0 0 0 -2.075,-0.732 3.565,3.565 0 0 0 -2.931,1.338 6.85,6.85 0 0 0 -1.2,4.366 7.319,7.319 0 0 0 0.915,3.836 3.634,3.634 0 0 0 3.353,1.867 3.472,3.472 0 0 0 1.934,-0.694 4.034,4.034 0 0 0 1.489,-1.83 l 3.306,1.716 a 8.9,8.9 0 0 1 -2.86,3.357 6.652,6.652 0 0 1 -3.868,1.237 7.683,7.683 0 0 1 -6.213,-2.852 10.023,10.023 0 0 1 -2.227,-6.637 10.321,10.321 0 0 1 2.11,-6.637 7.259,7.259 0 0 1 6,-2.852 q 4.548,0 6.987,4.694"
             transform="translate(-126.783,-38.798)"
             fill="#404041" />
          <path
             id="Path_35105"
             data-name="Path 35105"
             d="m 243.434,74.747 v -17.97 h 4.173 v 6.461 h 6.213 v -6.461 h 4.173 v 17.97 h -4.173 v -7.572 h -6.213 v 7.571 z"
             transform="translate(-171.503,-40.001)"
             fill="#404041" />
          <path
             id="Path_35106"
             data-name="Path 35106"
             d="M 324.819,74.747 H 311.83 v -17.97 h 12.286 V 60.26 H 316 v 3.281 h 7.573 v 3.483 H 316 v 4.24 h 8.815 z"
             transform="translate(-219.689,-40.001)"
             fill="#404041" />
          <path
             id="Path_35107"
             data-name="Path 35107"
             d="m 371.975,74.747 v -17.97 h 4.22 l 6.119,11.483 V 56.777 h 3.8 v 17.97 h -4.173 L 375.773,63.44 v 11.307 z"
             transform="translate(-262.062,-40.001)"
             fill="#404041" />
          <path
             id="Path_35108"
             data-name="Path 35108"
             d="m 437.39,74.747 v -8.379 l -6.342,-9.59 h 4.877 l 3.552,6.208 3.552,-6.208 h 4.877 l -6.342,9.59 v 8.379 z"
             transform="translate(-303.68,-40.001)"
             fill="#404041" />
          <rect
             id="Rectangle_14794"
             data-name="Rectangle 14794"
             width="4.1729999"
             height="17.969"
             transform="translate(147.496,16.777)"
             fill="#404041"
             x="0"
             y="0" />
        </g>
      </g>
    </g>
    <g
       id="alkotoelem-02"
       transform="translate(369.424,50.393)">
      <g
         id="Group_37130"
         data-name="Group 37130"
         transform="translate(47.614,11.381)">
        <path
           id="Path_42383"
           data-name="Path 42383"
           d="m 1160.3,2288.35 a 0.539,0.539 0 1 1 0.538,-0.538 0.538,0.538 0 0 1 -0.538,0.538 z m 0,-1.49 a 0.951,0.951 0 1 0 0.954,0.952 0.951,0.951 0 0 0 -0.954,-0.952 z"
           transform="translate(-1159.351,-2286.86)"
           fill="#174895" />
      </g>
      <g
         id="Group_37131"
         data-name="Group 37131"
         transform="translate(44.11,12.082)">
        <path
           id="Path_42384"
           data-name="Path 42384"
           d="m 1109.415,2298.091 a 0.342,0.342 0 1 1 0,-0.684 0.342,0.342 0 0 1 0,0.684 z m 0,-1.094 a 0.753,0.753 0 1 0 0.75,0.75 0.751,0.751 0 0 0 -0.75,-0.747 z"
           transform="translate(-1108.663,-2296.998)"
           fill="#174895" />
      </g>
      <g
         id="Group_37132"
         data-name="Group 37132"
         transform="translate(51.747,19.743)">
        <path
           id="Path_42385"
           data-name="Path 42385"
           d="m 1221.4,2410.623 c -0.643,0 -1.851,-0.181 -1.851,-0.868 a 1.884,1.884 0 0 1 3.706,0 c 0,0.687 -1.217,0.868 -1.855,0.868 z m 0,-2.825 a 2.309,2.309 0 0 0 -2.266,1.957 c 0,0.945 1.222,1.279 2.266,1.279 1.044,0 2.265,-0.334 2.265,-1.279 a 2.306,2.306 0 0 0 -2.265,-1.955 z"
           transform="translate(-1219.13,-2407.798)"
           fill="#174895" />
      </g>
      <g
         id="Group_37133"
         data-name="Group 37133"
         transform="translate(58.51,11.381)">
        <path
           id="Path_42386"
           data-name="Path 42386"
           d="m 1317.893,2288.35 a 0.539,0.539 0 1 1 0.541,-0.538 0.539,0.539 0 0 1 -0.541,0.538 z m 0,-1.49 a 0.951,0.951 0 1 0 0.955,0.952 0.952,0.952 0 0 0 -0.955,-0.952 z"
           transform="translate(-1316.943,-2286.86)"
           fill="#174895" />
      </g>
      <g
         id="Group_37134"
         data-name="Group 37134"
         transform="translate(62.415,12.082)">
        <path
           id="Path_42387"
           data-name="Path 42387"
           d="m 1374.18,2298.091 a 0.342,0.342 0 1 1 0.34,-0.344 0.341,0.341 0 0 1 -0.34,0.344 z m 0,-1.094 a 0.753,0.753 0 1 0 0.752,0.75 0.754,0.754 0 0 0 -0.752,-0.747 z"
           transform="translate(-1373.426,-2296.998)"
           fill="#174895" />
      </g>
      <g
         id="Group_37135"
         data-name="Group 37135"
         transform="translate(58.391,19.895)">
        <path
           id="Path_42388"
           data-name="Path 42388"
           d="m 1318.091,2412.518 h -2.442 v -2.108 h 2.442 z m 0.208,-2.521 h -2.858 a 0.2,0.2 0 0 0 -0.206,0.2 v 2.519 a 0.211,0.211 0 0 0 0.206,0.211 h 2.858 a 0.207,0.207 0 0 0 0.2,-0.211 v -2.516 a 0.2,0.2 0 0 0 -0.199,-0.2 z"
           transform="translate(-1315.234,-2409.998)"
           fill="#174895" />
      </g>
      <g
         id="Group_37136"
         data-name="Group 37136"
         transform="translate(62.367,19.897)">
        <path
           id="Path_42389"
           data-name="Path 42389"
           d="m 1374.586,2412.166 a 0.383,0.383 0 0 1 -0.384,0.384 h -0.675 a 0.387,0.387 0 0 1 -0.387,-0.384 v -1.339 a 0.391,0.391 0 0 1 0.387,-0.387 h 0.675 a 0.386,0.386 0 0 1 0.384,0.387 z m -0.384,-2.135 h -0.675 a 0.8,0.8 0 0 0 -0.8,0.8 v 1.339 a 0.8,0.8 0 0 0 0.8,0.8 h 0.675 a 0.8,0.8 0 0 0 0.8,-0.8 v -1.339 a 0.8,0.8 0 0 0 -0.802,-0.8 z"
           transform="translate(-1372.73,-2410.031)"
           fill="#174895" />
      </g>
      <g
         id="Group_37137"
         data-name="Group 37137"
         transform="translate(38.419,0.002)">
        <path
           id="Path_42390"
           data-name="Path 42390"
           d="m 1056.992,2174.3 a 2.132,2.132 0 0 0 -0.859,-0.455 v -26.788 h 0.937 c 0.01,2.3 0.051,23.02 0.051,25.263 a 15.376,15.376 0 0 1 -0.129,1.98 z m -0.262,1.419 -1.479,-1.481 a 1.533,1.533 0 0 1 0.374,-0.048 1.692,1.692 0 0 1 1.288,0.618 c -0.052,0.306 -0.113,0.61 -0.183,0.908 z m -0.532,1.669 -2.182,-2.186 a 0.207,0.207 0 0 0 0.1,-0.09 1.806,1.806 0 0 1 0.708,-0.711 l 1.778,1.776 a 12.5,12.5 0 0 1 -0.402,1.208 z m -0.7,1.489 -5.391,-5.389 h 1.614 l 4.312,4.309 a 11.637,11.637 0 0 1 -0.54,1.077 z m -0.86,1.333 -6.724,-6.723 h 1.611 l 5.761,5.755 q -0.315,0.506 -0.654,0.965 z m -1,1.2 -7.532,-7.53 a 4.081,4.081 0 0 1 0.23,-0.39 h 0.995 l 7.052,7.054 c -0.243,0.298 -0.495,0.585 -0.751,0.856 z m -1.127,1.072 -8.24,-8.238 a 1.753,1.753 0 0 1 1.05,0.76 0.213,0.213 0 0 0 0.208,0.087 0.2,0.2 0 0 0 0.164,-0.154 5.3,5.3 0 0 1 0.225,-0.665 l 7.434,7.432 c -0.28,0.269 -0.562,0.529 -0.852,0.772 z m -1.241,0.955 -8.659,-8.66 a 1.745,1.745 0 0 1 1.047,-0.568 l 8.537,8.537 c -0.315,0.244 -0.618,0.468 -0.931,0.685 z m -1.346,0.85 -7.815,-7.816 v -0.351 a 2.005,2.005 0 0 1 0.264,-1 l 8.551,8.553 c -0.341,0.216 -0.679,0.421 -1.006,0.608 z m -1.46,0.734 -6.355,-6.349 v -1.617 l 7.441,7.44 c -0.372,0.185 -0.732,0.361 -1.092,0.519 z m -1.574,0.624 -4.781,-4.781 v -1.614 l 5.947,5.947 c -0.398,0.157 -0.79,0.303 -1.172,0.441 z m -1.661,0.541 -3.12,-3.124 v -1.616 l 4.347,4.35 c -0.422,0.131 -0.835,0.261 -1.233,0.383 z m -0.824,0.245 c -0.3,0.088 -0.589,0.175 -0.865,0.258 l -1.431,-1.431 v -1.611 l 2.676,2.673 c -0.134,0.029 -0.259,0.064 -0.385,0.105 z m -2.3,0.749 v -1.339 l 0.99,0.986 c -0.359,0.107 -0.688,0.221 -0.995,0.346 z m 1.169,-40.12 v 26.818 a 2.178,2.178 0 0 0 -1.169,0.883 v -27.7 z m -14.485,-0.978 h 26.3 v 0.567 h -26.3 z m 12.9,5.617 h -1.126 v -4.639 h 1.126 z m -2.662,-4.639 h 1.124 v 4.639 h -1.124 z m -1.537,0 h 1.126 v 4.639 h -1.126 z m -1.54,0 h 1.125 v 4.639 h -1.125 z m -1.534,0 h 1.126 v 4.639 h -1.126 z m -1.535,0 h 1.124 v 4.639 h -1.124 z m -1.538,0 h 1.124 v 4.639 h -1.124 z m -1.54,0 h 1.125 v 4.639 h -1.125 z m 11.886,9.668 h -14.907 c 0,-1.645 0.01,-3.225 0.01,-4.619 h 14.9 z m 0,5.035 h -1.126 v -4.619 h 1.126 z m -2.662,-4.619 h 1.124 v 4.619 h -1.124 z m -1.537,0 h 1.126 v 4.619 h -1.126 z m -1.54,0 h 1.125 v 4.619 h -1.125 z m -1.534,0 h 1.126 v 4.619 h -1.126 z m -1.535,0 h 1.124 v 4.619 h -1.124 z m -1.538,0 h 1.124 v 4.619 h -1.124 z m -1.54,0 h 1.125 v 4.619 h -1.125 z m -1.534,0 h 1.124 v 4.619 h -1.124 z m 13.42,9.655 h -14.926 c 0,-1.412 0.01,-2.988 0.011,-4.625 h 14.916 z m 0,5.029 h -1.126 v -4.628 h 1.126 z m -2.662,-4.621 h 1.124 v 4.621 h -1.124 z m -1.537,0 h 1.126 v 4.621 h -1.126 z m -1.54,0 h 1.125 v 4.621 h -1.125 z m -1.534,0 h 1.126 v 4.621 h -1.126 z m -1.535,0 h 1.124 v 4.621 h -1.124 z m -1.538,0 h 1.124 v 4.621 h -1.124 z m -1.54,0 h 1.125 v 4.621 h -1.125 z m -1.534,0 h 1.124 v 4.621 h -1.124 z m 13.42,9.657 h -14.208 a 13.777,13.777 0 0 1 -0.729,-4.541 v -0.081 h 14.937 z m 0,5.032 h -1.126 v -4.619 h 1.126 z m -2.662,-4.622 h 1.124 v 4.621 h -1.124 z m -1.537,0 h 1.126 v 4.621 h -1.126 z m -1.54,0 h 1.125 v 4.621 h -1.125 z m -1.534,0 h 1.126 v 4.621 h -1.126 z m -1.535,0 h 1.124 v 4.621 h -1.124 z m -1.538,0 h 1.124 v 4.621 h -1.124 z m 10.346,9.872 c -0.633,-0.246 -1.377,-0.469 -2.218,-0.714 a 25.766,25.766 0 0 1 -5.388,-2.072 16.6,16.6 0 0 1 -2.917,-2.052 h 10.522 z m -10.759,-5.249 h -0.207 c -0.314,-0.3 -0.625,-0.625 -0.92,-0.972 v -3.651 h 1.127 z m -1.537,-1.481 a 12.416,12.416 0 0 1 -1.124,-1.742 v -1.4 h 1.124 z m -1.535,-2.592 c -0.081,-0.179 -0.155,-0.361 -0.231,-0.55 h 0.231 z m -1.1,-10.617 h 1.1 v 4.621 h -1.106 c 0.01,-0.886 0.01,-2.552 0.014,-4.628 z m 0.02,-10.063 h 1.076 v 4.619 h -1.085 c 0.01,-1.535 0.01,-3.106 0.016,-4.626 z m 0.021,-10.084 h 1.055 v 4.639 h -1.054 c 0,-2.328 0.01,-4.068 0.01,-4.646 z m 1.466,0 h 1.124 v 4.639 h -1.124 z m 0.057,-10.56 a 0.253,0.253 0 1 1 0.253,0.256 0.252,0.252 0 0 1 -0.245,-0.263 z m 0.458,6.083 h 1.409 v 2.107 h -1.409 z m 1.618,2.519 a 0.205,0.205 0 0 0 0.207,-0.2 v -2.522 a 0.2,0.2 0 0 0 -0.207,-0.205 h -1.618 v -0.566 h 9.7 v 4.063 h -9.7 v -0.567 z m 14.574,0.567 h -6.072 v -4.069 h 6.081 z m 10.108,-4.476 h -26.3 v -0.8 h 26.3 z m -25.149,-3.679 0.8,2.471 h -1.606 z m -0.34,-1.611 a 0.342,0.342 0 1 1 0.684,0 0.342,0.342 0 0 1 -0.684,0 z m 4.568,1.889 v 2.192 h -2.754 v -2.192 a 1.377,1.377 0 0 1 2.754,0 z m 3.807,2.192 H 1035 l 1.485,-3.646 z m -7.294,-3.944 c 1.106,-2.831 4.083,-5.1 7.8,-5.966 v 9.91 h -0.066 l -1.739,-4.268 a 0.2,0.2 0 0 0 -0.19,-0.128 0.2,0.2 0 0 0 -0.188,0.128 l -1.724,4.232 v -2.156 a 1.788,1.788 0 0 0 -3.575,0 v 1.653 l -0.868,-2.664 a 0.2,0.2 0 0 0 -0.14,-0.131 0.753,0.753 0 0 0 0.698,-0.616 z m 0.323,-2.636 6.3,-4.327 h 1.181 v 0.574 c -3.676,0.83 -6.668,3 -7.97,5.739 z m 7.9,3.777 a 3.0405,3.0405 0 0 1 6.081,0 v 2.8 h -6.076 z m 0,-8.1 h 0.927 v 5.379 a 3.45,3.45 0 0 0 -0.927,1.089 z m 3.036,4.248 a 0.69,0.69 0 1 1 0.771,-0.687 0.732,0.732 0 0 1 -0.767,0.676 z m -1.7,-4.248 h 3.4 v 5.1 a 3.448,3.448 0 0 0 -1.62,-0.449 1.178,1.178 0 1 0 -0.169,0 3.44,3.44 0 0 0 -1.616,0.449 z m 0.043,-3.388 h -0.021 a 0.372,0.372 0 0 1 -0.175,-0.041 l -1.286,0.854 -0.018,0.081 a 0.485,0.485 0 0 1 -0.207,0.3 0.491,0.491 0 0 1 -0.69,-0.139 0.495,0.495 0 0 1 0.658,-0.7 l 0.108,0.065 1.208,-0.8 a 0.06,0.06 0 0 1 0,-0.018 0.377,0.377 0 0 1 0.041,-0.176 l -0.946,-1.431 h -0.107 a 0.484,0.484 0 0 1 -0.395,-0.223 0.495,0.495 0 0 1 0.411,-0.767 0.491,0.491 0 0 1 0.464,0.661 l -0.033,0.1 0.949,1.433 h 0.018 a 0.419,0.419 0 0 1 0.173,0.039 l 1.2,-0.793 -0.012,-0.127 a 0.493,0.493 0 0 1 0.217,-0.47 0.5,0.5 0 0 1 0.273,-0.081 0.49,0.49 0 0 1 0.413,0.224 0.5,0.5 0 0 1 -0.14,0.686 0.491,0.491 0 0 1 -0.358,0.069 l -0.081,-0.01 -1.281,0.848 v 0.021 a 0.372,0.372 0 0 1 -0.039,0.173 l 1.059,1.6 0.131,-0.019 a 0.787,0.787 0 0 1 0.773,0.339 0.763,0.763 0 0 1 0.116,0.589 0.789,0.789 0 0 1 -0.334,0.5 0.8,0.8 0 0 1 -0.434,0.128 0.783,0.783 0 0 1 -0.654,-0.35 0.792,0.792 0 0 1 -0.01,-0.851 l 0.069,-0.111 z m 3.774,3.388 h 0.927 v 6.468 a 3.51,3.51 0 0 0 -0.927,-1.089 z m 4.817,10.908 h -2.965 l 1.482,-3.646 z m 3.593,-2.192 v 2.192 h -2.753 v -2.192 a 1.3765,1.3765 0 1 1 2.753,0 z m -7.073,-7.718 c 3.724,0.865 6.7,3.135 7.806,5.966 a 0.756,0.756 0 0 0 0.688,0.61 0.2,0.2 0 0 0 -0.142,0.131 l -0.865,2.664 v -1.653 a 1.788,1.788 0 0 0 -3.575,0 v 2.156 l -1.725,-4.232 a 0.2,0.2 0 0 0 -0.193,-0.128 0.205,0.205 0 0 0 -0.19,0.128 l -1.735,4.268 h -0.069 z m 0,-1 h 1.187 l 6.3,4.327 0.489,1.986 c -1.3,-2.742 -4.294,-4.908 -7.973,-5.739 z m 8.548,6.483 a 0.344,0.344 0 0 1 0.341,0.344 0.343,0.343 0 0 1 -0.685,0 0.347,0.347 0 0 1 0.349,-0.353 z m 0.8,4.425 h -1.606 l 0.806,-2.471 z m 0.349,4.707 h -1.412 v -2.106 h 1.412 z m -1.617,-2.519 a 0.2,0.2 0 0 0 -0.2,0.205 v 2.522 a 0.206,0.206 0 0 0 0.2,0.2 h 1.617 v 0.567 h -9.7 v -4.069 h 9.7 v 0.566 z m -0.862,18.634 h -1.303 v -3.663 h 1.312 z m 1.555,-3.308 v 3.308 h -1.147 v -3.663 h 0.167 a 1.343,1.343 0 0 1 0.986,0.345 z m -1.147,-3.639 v -6.8 h 1.147 v 6.444 a 1.367,1.367 0 0 1 -0.98,0.355 z m -1.388,-4.8 a 0.211,0.211 0 0 0 -0.166,-0.1 v -1.9 h 1.145 v 6.8 h -1.302 v -3.329 a 2.964,2.964 0 0 1 0.334,-1.269 0.2,0.2 0 0 0 0,-0.216 z m -1.724,-1.995 h 1.147 v 1.9 h -1.147 z m -1.556,0 h 1.146 v 1.9 h -1.146 z m -0.579,2.2 a 2.992,2.992 0 0 1 0.335,1.269 v 3.329 h -1.299 v -6.8 h 1.141 v 1.9 a 0.2,0.2 0 0 0 -0.166,0.306 z m -2.536,4.243 v -6.444 h 1.146 v 6.8 h -0.161 a 1.378,1.378 0 0 1 -0.978,-0.366 z m 1.561,3.64 h 1.311 v 3.663 h -1.3 z m -1.561,3.663 v -3.308 a 1.371,1.371 0 0 1 0.986,-0.354 h 0.161 v 3.663 z m -1.555,-0.361 v -13.385 h 1.145 v 13.733 h -0.188 a 1.28,1.28 0 0 1 -0.949,-0.362 z m 1.145,3.643 v 9.933 a 2.037,2.037 0 0 0 -0.948,-0.236 c -0.068,0 -0.131,0 -0.2,0.01 v -9.362 a 1.3,1.3 0 0 1 0.957,-0.341 z m 9.235,5.052 a 0.88,0.88 0 0 0 -0.405,-0.1 0.853,0.853 0 0 0 -0.639,0.316 v -5.264 h 1.147 v 5.184 a 0.219,0.219 0 0 0 -0.095,-0.15 z m -0.634,4.142 a 7.549,7.549 0 0 1 0.705,-3.844 0.2,0.2 0 0 0 0.032,-0.064 v 5.014 c -0.047,0.049 -0.095,0.1 -0.139,0.148 a 5.081,5.081 0 0 0 -0.59,-1.268 z m -0.352,0.209 a 4.612,4.612 0 0 1 0.62,1.4 l -1.4,-1.4 z m -0.026,-1.249 c -0.018,0.262 -0.032,0.536 -0.035,0.836 h -6.628 c 0,-0.3 -0.018,-0.574 -0.035,-0.836 z m -4.922,-0.415 h -0.671 a 0.439,0.439 0 0 1 0.378,-0.177 0.489,0.489 0 0 1 0.276,0.163 c 0.014,-0.01 0.022,0 0.025,10e-4 z m -0.021,-2.525 a 1.57,1.57 0 0 0 -0.473,0.9 c 0,0.123 0.276,1.064 0.9,1.064 a 1.136,1.136 0 0 0 0.188,-0.015 c -0.035,0.039 -0.065,0.08 -0.1,0.114 a 0.786,0.786 0 0 1 -0.2,0.169 c 0,-0.01 -0.01,-0.01 -0.018,-0.021 a 0.881,0.881 0 0 0 -0.565,-0.278 0.848,0.848 0 0 0 -0.624,0.249 c -0.03,-0.026 -0.057,-0.051 -0.092,-0.075 a 0.6,0.6 0 0 0 0.319,-0.4 c 0.206,-0.593 0.2,-0.708 0.132,-0.867 l -0.01,-0.017 c 0,-0.01 -0.3,-0.735 -0.768,-0.809 v -5.228 h 1.309 z m 3.842,2.525 h -0.675 l 0.017,-0.014 a 0.514,0.514 0 0 1 0.276,-0.163 0.445,0.445 0 0 1 0.389,0.164 z m 0.661,-2.511 c -0.466,0.069 -0.768,0.8 -0.774,0.809 l -0.01,0.02 c -0.062,0.157 -0.066,0.276 0.137,0.865 a 0.61,0.61 0 0 0 0.322,0.4 c -0.035,0.024 -0.066,0.05 -0.1,0.071 a 0.8,0.8 0 0 0 -1.187,0.038 0.108,0.108 0 0 0 -0.02,0.018 0.791,0.791 0 0 1 -0.2,-0.171 1.382,1.382 0 0 1 -0.1,-0.114 1.179,1.179 0 0 0 0.188,0.015 c 0.6,0 0.9,-0.886 0.9,-1.064 a 1.586,1.586 0 0 0 -0.475,-0.9 v -5.215 h 1.311 z m 0.285,1.476 a 0.2,0.2 0 0 0 -0.243,0.066 0.47,0.47 0 0 1 -0.211,0.169 c -0.011,0 -0.051,-0.041 -0.091,-0.152 -0.172,-0.5 -0.151,-0.55 -0.138,-0.574 l 0.01,-0.03 c 0.066,-0.16 0.307,-0.552 0.463,-0.552 0.039,0 0.1,0.049 0.152,0.13 a 0.2,0.2 0 0 0 0.357,-0.029 c 0,0 0.182,-0.374 0.464,-0.374 h 0.01 a 7.307,7.307 0 0 0 -0.578,2.38 h -0.666 a 1.417,1.417 0 0 0 0.6,-0.816 0.205,0.205 0 0 0 -0.116,-0.231 z m -3.768,-1.6 a 0.311,0.311 0 0 1 -0.078,-0.255 c 0,-0.24 0.5,-0.455 0.654,-0.491 0.137,0.033 0.657,0.238 0.657,0.491 a 0.338,0.338 0 0 1 -0.082,0.259 0.41,0.41 0 0 0 -0.111,0.275 v 0.058 a 0.2,0.2 0 0 0 0.072,0.158 0.206,0.206 0 0 0 0.17,0.047 0.444,0.444 0 0 0 0.2,-0.108 0.33,0.33 0 0 1 0.261,-0.08 0.28,0.28 0 0 1 0.06,0.012 0.191,0.191 0 0 0 0.115,0.068 1.35,1.35 0 0 1 0.312,0.579 c -0.029,0.137 -0.235,0.654 -0.487,0.654 a 0.333,0.333 0 0 1 -0.261,-0.081 0.409,0.409 0 0 0 -0.271,-0.11 h -0.154 a 0.209,0.209 0 0 0 -0.178,0.1 0.224,0.224 0 0 0 0,0.2 3.91,3.91 0 0 0 0.476,0.682 1.549,1.549 0 0 0 0.2,0.179 h -1.959 a 1.179,1.179 0 0 0 0.2,-0.179 3.982,3.982 0 0 0 0.476,-0.682 0.206,0.206 0 0 0 -0.01,-0.2 0.2,0.2 0 0 0 -0.178,-0.1 h -0.151 a 0.415,0.415 0 0 0 -0.273,0.11 0.332,0.332 0 0 1 -0.261,0.081 c -0.25,0 -0.457,-0.518 -0.486,-0.654 a 1.312,1.312 0 0 1 0.318,-0.579 0.206,0.206 0 0 0 0.108,-0.068 0.262,0.262 0 0 1 0.06,-0.012 0.33,0.33 0 0 1 0.261,0.08 0.468,0.468 0 0 0 0.2,0.108 0.211,0.211 0 0 0 0.244,-0.2 v -0.058 a 0.416,0.416 0 0 0 -0.1,-0.297 z m -3.385,0.254 h 0.01 c 0.282,0 0.461,0.369 0.464,0.374 a 0.2,0.2 0 0 0 0.169,0.119 0.219,0.219 0 0 0 0.185,-0.088 c 0.057,-0.083 0.113,-0.132 0.158,-0.132 0.155,0 0.4,0.386 0.455,0.552 l 0.015,0.035 c 0.012,0.019 0.032,0.071 -0.143,0.569 a 0.315,0.315 0 0 1 -0.084,0.152 0.45,0.45 0 0 1 -0.211,-0.166 0.2,0.2 0 0 0 -0.243,-0.07 0.2,0.2 0 0 0 -0.125,0.217 1.4,1.4 0 0 0 0.6,0.818 h -0.667 a 7.27,7.27 0 0 0 -0.572,-2.393 z m -0.5,-0.175 v -5.184 h 1.146 v 5.264 a 0.834,0.834 0 0 0 -0.636,-0.316 0.886,0.886 0 0 0 -0.405,0.1 0.248,0.248 0 0 0 -0.103,0.123 z m 0.035,0.166 a 7.5,7.5 0 0 1 0.705,3.841 5.014,5.014 0 0 0 -0.572,1.172 2.237,2.237 0 0 0 -0.167,-0.154 v -4.928 a 0.2,0.2 0 0 0 0.036,0.056 z m 10.452,-5.009 v 9.358 h -0.1 a 2.1,2.1 0 0 0 -0.83,0.175 c -0.01,0 -0.01,0 -0.011,0 -0.069,0.03 -0.14,0.068 -0.208,0.1 v -9.98 h 0.188 a 1.31,1.31 0 0 1 0.963,0.334 z m -0.958,-0.753 h -3.671 a 0.209,0.209 0 0 0 -0.208,0.207 v 5.254 h -0.012 c -0.044,0 -0.084,0 -0.124,0.01 a 0.955,0.955 0 0 0 0.02,-0.2 c 0,-0.622 -0.937,-0.9 -1.067,-0.9 -0.182,0 -1.067,0.3 -1.067,0.9 a 0.963,0.963 0 0 0 0.018,0.2 c -0.036,0 -0.078,-0.01 -0.124,-0.01 h -0.013 v -5.254 a 0.207,0.207 0 0 0 -0.2,-0.207 h -3.673 a 1.835,1.835 0 0 0 -0.957,0.244 v -2.955 a 1.832,1.832 0 0 0 0.957,0.249 h 3.673 a 0.2,0.2 0 0 0 0.2,-0.2 v -4.074 a 0.206,0.206 0 0 0 -0.2,-0.21 h -2.089 a 1.914,1.914 0 0 0 -0.986,0.256 v -2.967 a 1.944,1.944 0 0 0 0.986,0.252 h 2.089 a 0.206,0.206 0 0 0 0.2,-0.21 v -3.53 a 3.249,3.249 0 0 0 -0.241,-1.163 h 2.855 a 3.285,3.285 0 0 0 -0.245,1.163 v 3.53 a 0.209,0.209 0 0 0 0.208,0.21 h 2.092 a 1.924,1.924 0 0 0 0.98,-0.252 v 2.967 a 1.9,1.9 0 0 0 -0.98,-0.256 h -2.092 a 0.209,0.209 0 0 0 -0.208,0.21 V 2161 a 0.206,0.206 0 0 0 0.208,0.2 h 3.671 a 1.83,1.83 0 0 0 0.958,-0.249 v 2.955 a 1.833,1.833 0 0 0 -0.957,-0.238 z m 0.958,-16.615 v 13.385 a 1.279,1.279 0 0 1 -0.958,0.361 h -0.188 v -13.746 z m -0.681,-10.56 a 0.252,0.252 0 1 1 0.253,0.256 0.252,0.252 0 0 1 -0.251,-0.27 z m 2.44,10.354 a 0.206,0.206 0 0 0 -0.2,-0.206 h -1.779 v -9.516 a 0.664,0.664 0 1 0 -0.411,0 v 2.6 l -0.955,-2.947 a 0.206,0.206 0 0 0 -0.143,-0.131 0.751,0.751 0 0 0 -0.051,-1.5 0.789,0.789 0 0 0 -0.2,0.029 l -0.477,-1.948 a 0.259,0.259 0 0 0 -0.083,-0.124 l -6.42,-4.407 a 0.22,0.22 0 0 0 -0.114,-0.033 h -3.866 a 1.195,1.195 0 0 0 -0.889,-2.043 l -0.771,-1.167 0.925,-0.611 h 0.071 a 0.9,0.9 0 0 0 0.889,-0.723 0.915,0.915 0 0 0 -0.135,-0.686 0.9,0.9 0 0 0 -0.753,-0.4 0.935,0.935 0 0 0 -0.5,0.149 0.907,0.907 0 0 0 -0.405,0.731 l -0.768,0.509 -0.69,-1.041 a 0.917,0.917 0 0 0 -0.128,-0.705 0.906,0.906 0 0 0 -1.511,1 0.925,0.925 0 0 0 0.612,0.393 l 0.687,1.035 -0.777,0.515 a 0.931,0.931 0 0 0 -0.83,0.089 0.906,0.906 0 0 0 1,1.511 0.935,0.935 0 0 0 0.36,-0.469 l 0.925,-0.613 0.77,1.158 a 1.2,1.2 0 0 0 0.081,1.177 1.477,1.477 0 0 0 0.158,0.187 h -3.857 a 0.238,0.238 0 0 0 -0.116,0.033 l -6.414,4.407 a 0.191,0.191 0 0 0 -0.083,0.124 l -0.479,1.948 a 0.818,0.818 0 0 0 -0.2,-0.029 0.751,0.751 0 0 0 -0.053,1.5 0.214,0.214 0 0 0 -0.143,0.131 l -0.955,2.947 v -2.6 a 0.665,0.665 0 1 0 -0.411,0 v 9.516 h -1.79 a 0.206,0.206 0 0 0 -0.2,0.206 c 0,0.23 -0.053,23.109 -0.053,25.47 0,6.777 4.1,10.483 7.542,12.395 a 26.269,26.269 0 0 0 5.475,2.108 22.72,22.72 0 0 1 2.493,0.833 0.254,0.254 0 0 0 0.081,0.017 0.207,0.207 0 0 0 0.084,-0.017 22.761,22.761 0 0 1 2.5,-0.833 26.346,26.346 0 0 0 5.472,-2.108 13.694,13.694 0 0 0 7.538,-12.395 c 0,-2.371 -0.051,-25.25 -0.051,-25.48 z"
           transform="translate(-1026.343,-2122.272)"
           fill="#174895" />
      </g>
      <g
         id="Group_37138"
         data-name="Group 37138"
         transform="translate(46.367,19.895)">
        <path
           id="Path_42391"
           data-name="Path 42391"
           d="m 1141.729,2410.411 h 2.441 v 2.108 h -2.441 z m -0.208,2.521 h 2.855 a 0.209,0.209 0 0 0 0.2,-0.211 v -2.521 a 0.2,0.2 0 0 0 -0.2,-0.2 h -2.855 a 0.2,0.2 0 0 0 -0.208,0.2 v 2.519 a 0.21,0.21 0 0 0 0.208,0.212 z"
           transform="translate(-1141.313,-2409.998)"
           fill="#174895" />
      </g>
      <g
         id="Group_37139"
         data-name="Group 37139"
         transform="translate(43.395,19.894)">
        <path
           id="Path_42392"
           data-name="Path 42392"
           d="m 1098.741,2410.791 a 0.382,0.382 0 0 1 0.383,-0.384 h 0.677 a 0.384,0.384 0 0 1 0.384,0.384 v 1.342 a 0.387,0.387 0 0 1 -0.384,0.383 h -0.677 a 0.384,0.384 0 0 1 -0.383,-0.383 z m 0.383,2.138 h 0.677 a 0.8,0.8 0 0 0 0.794,-0.8 v -1.342 a 0.8,0.8 0 0 0 -0.794,-0.8 h -0.677 a 0.8,0.8 0 0 0 -0.794,0.8 v 1.342 a 0.8,0.8 0 0 0 0.794,0.8 z"
           transform="translate(-1098.33,-2409.994)"
           fill="#174895" />
      </g>
      <g
         id="Group_37140"
         data-name="Group 37140"
         transform="translate(0.001,73.034)">
        <path
           id="Path_42393"
           data-name="Path 42393"
           d="m 482.363,3187.208 c 0.054,0.483 0.147,1.235 0.726,1.422 a 2.882,2.882 0 0 0 0.874,0.122 c 0.065,0 0.105,0.012 0.105,0.065 0,0.081 -0.118,0.122 -0.282,0.122 -0.3,0 -1.746,-0.041 -2.239,-0.08 -0.309,-0.026 -0.376,-0.066 -0.376,-0.133 0,-0.067 0.024,-0.081 0.095,-0.1 0.071,-0.019 0.077,-0.243 0.053,-0.482 l -0.645,-6.926 h -0.042 l -3.289,6.977 c -0.282,0.594 -0.319,0.714 -0.441,0.714 -0.094,0 -0.16,-0.136 -0.413,-0.618 -0.352,-0.658 -1.5,-2.98 -1.573,-3.113 -0.118,-0.246 -1.623,-3.463 -1.77,-3.829 h -0.051 l -0.542,6.229 c -0.01,0.215 -0.01,0.457 -0.01,0.689 a 0.424,0.424 0 0 0 0.348,0.411 2.377,2.377 0 0 0 0.511,0.069 c 0.054,0 0.107,0.025 0.107,0.065 0,0.1 -0.081,0.122 -0.241,0.122 -0.5,0 -1.142,-0.041 -1.251,-0.041 -0.109,0 -0.762,0.041 -1.127,0.041 -0.133,0 -0.226,-0.025 -0.226,-0.122 0,-0.04 0.065,-0.065 0.135,-0.065 a 1.748,1.748 0 0 0 0.4,-0.039 c 0.445,-0.083 0.485,-0.606 0.536,-1.115 l 0.969,-8.75 c 0.014,-0.146 0.066,-0.241 0.148,-0.241 0.082,0 0.134,0.051 0.2,0.2 l 4.109,8.441 3.946,-8.428 c 0.054,-0.119 0.105,-0.214 0.2,-0.214 0.095,0 0.136,0.1 0.163,0.362 z"
           transform="translate(-470.663,-3178.606)"
           fill="#174895" />
      </g>
      <g
         id="Group_37141"
         data-name="Group 37141"
         transform="translate(13.14,74.52)">
        <path
           id="Path_42394"
           data-name="Path 42394"
           d="m 666.246,3205.3 c 0.054,0 0.054,-0.027 0.042,-0.081 l -1.169,-3.128 c -0.067,-0.173 -0.136,-0.173 -0.2,0 l -1.1,3.128 c -0.012,0.054 0,0.081 0.041,0.081 z m -1.314,-4.747 c 0.146,-0.377 0.2,-0.449 0.282,-0.449 0.122,0 0.16,0.164 0.282,0.417 0.217,0.485 2.109,5.195 2.833,6.927 0.429,1.02 0.75,1.167 1.006,1.248 a 1.632,1.632 0 0 0 0.469,0.066 c 0.068,0 0.149,0.027 0.149,0.095 0,0.068 -0.136,0.092 -0.273,0.092 -0.173,0 -1.043,0 -1.865,-0.027 -0.223,-0.012 -0.413,-0.012 -0.413,-0.078 0,-0.066 0.027,-0.054 0.08,-0.081 a 0.218,0.218 0 0 0 0.11,-0.309 l -1.064,-2.617 c -0.027,-0.053 -0.039,-0.067 -0.11,-0.067 H 663.7 a 0.12,0.12 0 0 0 -0.119,0.095 l -0.672,1.824 a 2.359,2.359 0 0 0 -0.175,0.764 c 0,0.227 0.2,0.309 0.4,0.309 h 0.107 c 0.095,0 0.12,0.042 0.12,0.095 0,0.053 -0.068,0.092 -0.172,0.092 -0.283,0 -0.93,-0.039 -1.064,-0.039 -0.119,0 -0.709,0.039 -1.192,0.039 -0.149,0 -0.229,-0.027 -0.229,-0.092 a 0.1,0.1 0 0 1 0.106,-0.095 2.905,2.905 0 0 0 0.351,-0.029 c 0.535,-0.066 0.764,-0.466 0.993,-1.044 z"
           transform="translate(-660.705,-3200.107)"
           fill="#174895" />
      </g>
      <g
         id="Group_37142"
         data-name="Group 37142"
         transform="translate(21.995,74.578)">
        <path
           id="Path_42395"
           data-name="Path 42395"
           d="m 795.684,3206.817 c 0,-0.927 -0.029,-1.059 -0.509,-1.156 -0.095,-0.012 -0.3,-0.024 -0.4,-0.024 a 0.116,0.116 0 0 1 -0.1,-0.1 c 0,-0.082 0.053,-0.092 0.188,-0.092 0.535,0 1.329,0.024 1.4,0.024 0.071,0 0.79,-0.024 1.153,-0.024 0.131,0 0.188,0.01 0.188,0.092 a 0.121,0.121 0 0 1 -0.093,0.1 1.453,1.453 0 0 0 -0.3,0.024 c -0.322,0.054 -0.419,0.229 -0.443,0.633 -0.014,0.363 -0.014,0.695 -0.014,1.181 v 1.272 c 0,0.526 -0.014,0.539 -0.163,0.62 a 6.687,6.687 0 0 1 -6.4,-0.713 4.367,4.367 0 0 1 -1.409,-3.248 4.267,4.267 0 0 1 1.974,-3.744 5.938,5.938 0 0 1 3.141,-0.723 9.772,9.772 0 0 1 1.816,0.188 5.122,5.122 0 0 0 0.949,0.118 c 0.12,0 0.146,0.054 0.146,0.11 0,0.16 -0.065,0.47 -0.065,1.609 0,0.185 -0.056,0.242 -0.134,0.242 -0.078,0 -0.082,-0.068 -0.082,-0.175 a 1.7,1.7 0 0 0 -0.267,-0.754 3.385,3.385 0 0 0 -2.727,-0.885 3.742,3.742 0 0 0 -2.468,0.741 3.534,3.534 0 0 0 -1.165,2.867 4.549,4.549 0 0 0 1.247,3.155 4.226,4.226 0 0 0 3.019,1.2 3,3 0 0 0 1.278,-0.217 c 0.146,-0.078 0.239,-0.134 0.239,-0.347 z"
           transform="translate(-788.784,-3200.94)"
           fill="#174895" />
      </g>
      <g
         id="Group_37143"
         data-name="Group 37143"
         transform="translate(31.219,74.737)">
        <path
           id="Path_42396"
           data-name="Path 42396"
           d="m 925.947,3208.913 a 2.072,2.072 0 0 0 -0.253,-1.171 c -0.095,-0.175 -1.692,-2.709 -2.1,-3.314 a 2.877,2.877 0 0 0 -0.774,-0.83 1.208,1.208 0 0 0 -0.5,-0.163 0.115,0.115 0 0 1 -0.12,-0.105 c 0,-0.054 0.037,-0.081 0.146,-0.081 0.229,0 1.116,0.027 1.169,0.027 0.075,0 0.565,-0.027 1.019,-0.027 0.136,0 0.16,0.027 0.16,0.081 0,0.039 -0.078,0.081 -0.187,0.119 -0.109,0.038 -0.146,0.1 -0.146,0.188 a 0.93,0.93 0 0 0 0.161,0.443 l 2.146,3.558 c 0.244,-0.484 1.718,-2.927 1.934,-3.3 a 1.259,1.259 0 0 0 0.2,-0.592 0.268,0.268 0 0 0 -0.187,-0.3 c -0.108,-0.029 -0.178,-0.08 -0.178,-0.132 0,-0.052 0.069,-0.068 0.188,-0.068 0.309,0 0.728,0.027 0.82,0.027 0.092,0 0.927,-0.027 1.154,-0.027 0.083,0 0.148,0.027 0.148,0.068 a 0.138,0.138 0 0 1 -0.148,0.119 1.22,1.22 0 0 0 -0.548,0.149 2.034,2.034 0 0 0 -0.594,0.564 c -0.386,0.457 -2.052,3.14 -2.294,3.623 a 2.291,2.291 0 0 0 -0.146,1.142 v 0.978 c 0,0.19 0,0.672 0.039,1.139 0.027,0.339 0.107,0.555 0.455,0.607 a 4.871,4.871 0 0 0 0.541,0.053 0.092,0.092 0 0 1 0.094,0.095 c 0,0.052 -0.068,0.094 -0.188,0.094 -0.658,0 -1.424,-0.041 -1.49,-0.041 -0.066,0 -0.806,0.041 -1.155,0.041 -0.133,0 -0.187,-0.028 -0.187,-0.094 a 0.09,0.09 0 0 1 0.1,-0.095 1.6,1.6 0 0 0 0.345,-0.053 c 0.243,-0.052 0.325,-0.268 0.348,-0.607 0.029,-0.467 0.029,-0.949 0.029,-1.139 z"
           transform="translate(-922.205,-3203.249)"
           fill="#174895" />
      </g>
      <g
         id="Group_37144"
         data-name="Group 37144"
         transform="translate(38.707,74.52)">
        <path
           id="Path_42397"
           data-name="Path 42397"
           d="m 1036.055,3205.3 c 0.054,0 0.054,-0.027 0.044,-0.081 l -1.171,-3.128 c -0.065,-0.173 -0.136,-0.173 -0.2,0 l -1.1,3.128 c -0.014,0.054 0,0.081 0.039,0.081 z m -1.314,-4.747 c 0.147,-0.377 0.2,-0.449 0.282,-0.449 0.122,0 0.161,0.164 0.282,0.417 0.217,0.485 2.109,5.195 2.833,6.927 0.429,1.02 0.752,1.167 1.006,1.248 a 1.636,1.636 0 0 0 0.469,0.066 c 0.067,0 0.149,0.027 0.149,0.095 0,0.068 -0.135,0.092 -0.273,0.092 -0.172,0 -1.041,0 -1.862,-0.027 -0.226,-0.012 -0.416,-0.012 -0.416,-0.078 0,-0.066 0.027,-0.054 0.08,-0.081 a 0.218,0.218 0 0 0 0.11,-0.309 l -1.062,-2.617 a 0.094,0.094 0 0 0 -0.107,-0.067 h -2.726 c -0.052,0 -0.092,0.026 -0.119,0.095 l -0.672,1.824 a 2.369,2.369 0 0 0 -0.175,0.764 c 0,0.227 0.2,0.309 0.405,0.309 h 0.1 c 0.095,0 0.122,0.042 0.122,0.095 0,0.053 -0.066,0.092 -0.173,0.092 -0.283,0 -0.93,-0.039 -1.059,-0.039 -0.129,0 -0.714,0.039 -1.2,0.039 -0.149,0 -0.229,-0.027 -0.229,-0.092 a 0.1,0.1 0 0 1 0.108,-0.095 2.888,2.888 0 0 0 0.348,-0.029 c 0.533,-0.066 0.764,-0.466 1,-1.044 z"
           transform="translate(-1030.513,-3200.107)"
           fill="#174895" />
      </g>
      <g
         id="Group_37145"
         data-name="Group 37145"
         transform="translate(48.76,74.736)">
        <path
           id="Path_42398"
           data-name="Path 42398"
           d="m 1177.954,3207.5 a 0.171,0.171 0 0 0 0.08,0.146 3.951,3.951 0 0 0 1.3,0.176 1.536,1.536 0 0 0 0.886,-0.2 2.037,2.037 0 0 0 0.711,-1.748 1.969,1.969 0 0 0 -2.039,-2.24 5.566,5.566 0 0 0 -0.847,0.066 0.152,0.152 0 0 0 -0.092,0.133 z m -1.02,-0.967 c 0,-1.77 0,-2.093 -0.028,-2.458 -0.027,-0.385 -0.094,-0.574 -0.482,-0.627 a 3.152,3.152 0 0 0 -0.4,-0.03 0.11,0.11 0 0 1 -0.1,-0.094 c 0,-0.068 0.053,-0.095 0.19,-0.095 0.538,0 1.326,0.027 1.4,0.027 0.119,0 1.112,-0.027 1.477,-0.027 a 3.855,3.855 0 0 1 2.2,0.5 2,2 0 0 1 0.818,1.558 3.326,3.326 0 0 1 -1.448,2.6 c 0.966,1.207 1.784,2.239 2.468,2.95 a 2.153,2.153 0 0 0 1.316,0.792 2.072,2.072 0 0 0 0.419,0.043 0.1,0.1 0 0 1 0.105,0.094 c 0,0.065 -0.068,0.094 -0.283,0.094 h -0.738 a 2.366,2.366 0 0 1 -1.259,-0.23 5.984,5.984 0 0 1 -1.611,-1.677 c -0.5,-0.618 -1.019,-1.356 -1.276,-1.665 a 0.182,0.182 0 0 0 -0.16,-0.068 l -1.5,-0.024 c -0.051,0 -0.08,0.024 -0.08,0.092 v 0.268 c 0,1.1 0,1.987 0.051,2.456 0.041,0.337 0.108,0.55 0.47,0.605 a 4.674,4.674 0 0 0 0.524,0.055 0.084,0.084 0 0 1 0.1,0.094 c 0,0.052 -0.057,0.094 -0.191,0.094 -0.642,0 -1.394,-0.042 -1.449,-0.042 -0.013,0 -0.8,0.042 -1.166,0.042 -0.122,0 -0.187,-0.028 -0.187,-0.094 a 0.088,0.088 0 0 1 0.092,-0.094 1.781,1.781 0 0 0 0.363,-0.055 c 0.227,-0.056 0.254,-0.268 0.309,-0.605 a 23.112,23.112 0 0 0 0.068,-2.471 z"
           transform="translate(-1175.926,-3203.232)"
           fill="#174895" />
      </g>
      <g
         id="Group_37146"
         data-name="Group 37146"
         transform="translate(57.269,74.576)">
        <path
           id="Path_42399"
           data-name="Path 42399"
           d="m 1303.956,3209.384 c 1.059,0 3.192,-0.565 3.192,-3.866 0,-2.738 -1.663,-4.174 -3.527,-4.174 -1.972,0 -3.4,1.232 -3.4,3.718 0.01,2.658 1.602,4.322 3.735,4.322 z m -0.268,-8.469 c 2.656,0 4.669,1.624 4.669,4.285 a 4.571,4.571 0 0 1 -4.736,4.654 4.375,4.375 0 0 1 -4.616,-4.482 4.516,4.516 0 0 1 4.683,-4.457 z"
           transform="translate(-1299.005,-3200.915)"
           fill="#174895" />
      </g>
      <g
         id="Group_37147"
         data-name="Group 37147"
         transform="translate(67.992,74.736)">
        <path
           id="Path_42400"
           data-name="Path 42400"
           d="m 1456.122,3207.5 a 0.17,0.17 0 0 0 0.08,0.146 3.957,3.957 0 0 0 1.3,0.176 1.555,1.555 0 0 0 0.889,-0.2 2.042,2.042 0 0 0 0.708,-1.748 1.968,1.968 0 0 0 -2.039,-2.24 5.506,5.506 0 0 0 -0.845,0.066 0.149,0.149 0 0 0 -0.093,0.133 z m -1.02,-0.967 c 0,-1.77 0,-2.093 -0.027,-2.458 -0.029,-0.385 -0.095,-0.574 -0.485,-0.627 a 3.109,3.109 0 0 0 -0.4,-0.03 0.109,0.109 0 0 1 -0.092,-0.094 c 0,-0.068 0.051,-0.095 0.187,-0.095 0.536,0 1.328,0.027 1.4,0.027 0.116,0 1.11,-0.027 1.475,-0.027 a 3.853,3.853 0 0 1 2.2,0.5 2.008,2.008 0 0 1 0.818,1.558 3.331,3.331 0 0 1 -1.448,2.6 c 0.967,1.207 1.782,2.239 2.468,2.95 a 2.156,2.156 0 0 0 1.315,0.792 2.083,2.083 0 0 0 0.419,0.043 0.1,0.1 0 0 1 0.1,0.094 c 0,0.065 -0.068,0.094 -0.282,0.094 h -0.736 a 2.366,2.366 0 0 1 -1.261,-0.23 5.963,5.963 0 0 1 -1.609,-1.677 c -0.5,-0.618 -1.021,-1.356 -1.279,-1.665 a 0.179,0.179 0 0 0 -0.157,-0.068 l -1.505,-0.024 c -0.051,0 -0.08,0.024 -0.08,0.092 v 0.268 c 0,1.1 0,1.987 0.051,2.456 0.042,0.337 0.108,0.55 0.47,0.605 a 4.613,4.613 0 0 0 0.526,0.055 0.083,0.083 0 0 1 0.093,0.094 c 0,0.052 -0.056,0.094 -0.188,0.094 -0.644,0 -1.394,-0.042 -1.449,-0.042 -0.014,0 -0.8,0.042 -1.166,0.042 -0.124,0 -0.188,-0.028 -0.188,-0.094 a 0.089,0.089 0 0 1 0.094,-0.094 1.75,1.75 0 0 0 0.361,-0.055 c 0.229,-0.056 0.255,-0.268 0.309,-0.605 a 23.07,23.07 0 0 0 0.068,-2.471 z"
           transform="translate(-1454.097,-3203.232)"
           fill="#174895" />
      </g>
      <g
         id="Group_37148"
         data-name="Group 37148"
         transform="translate(77.462,74.563)">
        <path
           id="Path_42401"
           data-name="Path 42401"
           d="m 1591.248,3209.369 c -0.163,-0.08 -0.177,-0.122 -0.177,-0.428 0,-0.563 0.053,-1.021 0.068,-1.21 0,-0.119 0.026,-0.188 0.093,-0.188 0.067,0 0.107,0.044 0.107,0.136 a 1.64,1.64 0 0 0 0.042,0.417 1.734,1.734 0 0 0 1.865,1.125 c 1.167,0 1.772,-0.654 1.772,-1.514 0,-0.82 -0.443,-1.207 -1.49,-1.985 l -0.54,-0.4 c -1.271,-0.955 -1.69,-1.651 -1.69,-2.443 0,-1.344 1.059,-2.147 2.617,-2.147 a 5.487,5.487 0 0 1 1.223,0.135 1.534,1.534 0 0 0 0.414,0.053 c 0.095,0 0.12,0.012 0.12,0.08 a 11.993,11.993 0 0 0 -0.054,1.207 c 0,0.174 -0.011,0.258 -0.093,0.258 -0.082,0 -0.1,-0.057 -0.105,-0.149 a 2.117,2.117 0 0 0 -0.176,-0.565 c -0.08,-0.131 -0.47,-0.562 -1.528,-0.562 -0.86,0 -1.573,0.431 -1.573,1.237 0,0.722 0.363,1.141 1.531,1.929 l 0.337,0.23 c 1.433,0.982 1.93,1.772 1.93,2.751 a 2.214,2.214 0 0 1 -1.1,1.944 3.61,3.61 0 0 1 -1.877,0.4 4.323,4.323 0 0 1 -1.716,-0.311 z"
           transform="translate(-1591.072,-3200.728)"
           fill="#174895" />
      </g>
      <g
         id="Group_37149"
         data-name="Group 37149"
         transform="translate(83.844,74.655)">
        <path
           id="Path_42402"
           data-name="Path 42402"
           d="m 1687.92,3210.234 c 1.249,0 1.569,-0.205 1.838,-0.525 a 1.934,1.934 0 0 0 0.244,-0.618 c 0.024,-0.108 0.065,-0.175 0.132,-0.175 0.067,0 0.092,0.042 0.092,0.255 a 6.406,6.406 0 0 1 -0.239,1.314 c -0.068,0.282 -0.081,0.3 -0.348,0.3 -1.975,0 -3.974,-0.054 -6.04,-0.054 -0.135,0 -0.218,-0.012 -0.218,-0.092 0,-0.057 0.013,-0.137 0.166,-0.351 1.771,-2.561 3.515,-5.1 5.139,-7.634 h -2.5 a 4.2,4.2 0 0 0 -1.678,0.188 1.292,1.292 0 0 0 -0.669,0.9 c -0.029,0.175 -0.1,0.2 -0.161,0.2 -0.061,0 -0.066,-0.055 -0.066,-0.146 0,-0.134 0.175,-1.171 0.243,-1.519 0.013,-0.163 0.038,-0.217 0.1,-0.217 a 4.1,4.1 0 0 0 0.5,0.081 c 1.127,0.042 1.692,0.029 2.066,0.029 h 3.3 c 0.176,0 0.241,0.026 0.241,0.095 a 0.343,0.343 0 0 1 -0.065,0.2 c -1.72,2.632 -3.438,5.18 -5.223,7.771 z"
           transform="translate(-1683.38,-3202.057)"
           fill="#174895" />
      </g>
      <g
         id="Group_37150"
         data-name="Group 37150"
         transform="translate(91.207,72.227)">
        <path
           id="Path_42403"
           data-name="Path 42403"
           d="m 1796.472,3167.651 c 0.065,0.124 0,0.161 -0.054,0.161 a 1.884,1.884 0 0 0 -0.4,0 8.815,8.815 0 0 0 -2.04,0.56 0.712,0.712 0 0 1 -0.2,0.073 0.079,0.079 0 0 1 -0.069,-0.084 c 0,-0.039 0.027,-0.063 0.095,-0.1 0.484,-0.337 1.731,-1.088 1.826,-1.139 0.229,-0.136 0.311,-0.177 0.375,-0.177 0.044,0 0.066,0.028 0.136,0.12 0.09,0.135 0.183,0.318 0.331,0.586 z m -1.047,6.78 c 0.054,0 0.054,-0.029 0.041,-0.083 l -1.171,-3.128 c -0.065,-0.172 -0.132,-0.172 -0.2,0 l -1.1,3.128 c -0.012,0.054 0,0.083 0.045,0.083 z m -1.315,-4.753 c 0.147,-0.377 0.2,-0.443 0.28,-0.443 0.12,0 0.161,0.161 0.282,0.417 0.217,0.484 2.109,5.192 2.832,6.926 0.429,1.02 0.752,1.168 1.006,1.248 a 1.673,1.673 0 0 0 0.468,0.066 c 0.071,0 0.149,0.027 0.149,0.1 0,0.073 -0.135,0.093 -0.268,0.093 -0.176,0 -1.045,0 -1.867,-0.027 -0.228,-0.013 -0.416,-0.013 -0.416,-0.078 0,-0.065 0.028,-0.056 0.083,-0.083 a 0.217,0.217 0 0 0 0.1,-0.309 l -1.061,-2.617 c -0.027,-0.053 -0.039,-0.065 -0.106,-0.065 h -2.727 a 0.116,0.116 0 0 0 -0.116,0.094 l -0.673,1.823 a 2.329,2.329 0 0 0 -0.175,0.765 c 0,0.228 0.2,0.309 0.4,0.309 h 0.107 c 0.094,0 0.121,0.039 0.121,0.1 0,0.061 -0.065,0.093 -0.175,0.093 -0.28,0 -0.926,-0.041 -1.059,-0.041 -0.133,0 -0.71,0.041 -1.195,0.041 -0.149,0 -0.229,-0.027 -0.229,-0.093 a 0.1,0.1 0 0 1 0.107,-0.1 3.379,3.379 0 0 0 0.351,-0.027 c 0.536,-0.068 0.766,-0.469 0.994,-1.047 z"
           transform="translate(-1789.881,-3166.94)"
           fill="#174895" />
      </g>
      <g
         id="Group_37151"
         data-name="Group 37151"
         transform="translate(99.863,74.578)">
        <path
           id="Path_42404"
           data-name="Path 42404"
           d="m 1921.979,3206.817 c 0,-0.927 -0.027,-1.059 -0.511,-1.156 -0.092,-0.012 -0.292,-0.024 -0.4,-0.024 a 0.116,0.116 0 0 1 -0.1,-0.1 c 0,-0.082 0.053,-0.092 0.188,-0.092 0.535,0 1.329,0.024 1.4,0.024 0.053,0 0.79,-0.024 1.153,-0.024 0.131,0 0.188,0.01 0.188,0.092 a 0.121,0.121 0 0 1 -0.093,0.1 1.446,1.446 0 0 0 -0.3,0.024 c -0.323,0.054 -0.419,0.229 -0.445,0.633 -0.012,0.363 -0.012,0.695 -0.012,1.181 v 1.272 c 0,0.526 -0.014,0.539 -0.163,0.62 a 6.687,6.687 0 0 1 -6.4,-0.713 4.367,4.367 0 0 1 -1.409,-3.248 4.267,4.267 0 0 1 1.974,-3.744 5.939,5.939 0 0 1 3.141,-0.723 9.773,9.773 0 0 1 1.816,0.188 5.118,5.118 0 0 0 0.949,0.118 c 0.121,0 0.146,0.054 0.146,0.11 0,0.16 -0.065,0.47 -0.065,1.609 0,0.185 -0.056,0.242 -0.135,0.242 -0.079,0 -0.08,-0.068 -0.08,-0.175 a 1.715,1.715 0 0 0 -0.267,-0.754 3.387,3.387 0 0 0 -2.727,-0.885 3.742,3.742 0 0 0 -2.468,0.741 3.534,3.534 0 0 0 -1.159,2.867 4.542,4.542 0 0 0 1.247,3.155 4.223,4.223 0 0 0 3.018,1.2 3,3 0 0 0 1.279,-0.217 c 0.145,-0.078 0.238,-0.134 0.238,-0.347 z"
           transform="translate(-1915.081,-3200.94)"
           fill="#174895" />
      </g>
      <g
         id="Group_37152"
         data-name="Group 37152"
         transform="translate(15.754,87.478)">
        <path
           id="Path_42405"
           data-name="Path 42405"
           d="m 699.685,3391.42 c 0,-2.1 0,-2.47 -0.028,-2.9 -0.024,-0.457 -0.131,-0.669 -0.577,-0.766 a 2.471,2.471 0 0 0 -0.455,-0.041 c -0.051,0 -0.107,-0.024 -0.107,-0.081 0,-0.078 0.068,-0.107 0.215,-0.107 0.6,0 1.394,0.041 1.474,0.041 0.123,0 0.9,-0.041 1.3,-0.041 0.149,0 0.216,0.029 0.216,0.107 0,0.058 -0.054,0.081 -0.11,0.081 a 1.99,1.99 0 0 0 -0.333,0.041 c -0.363,0.066 -0.47,0.3 -0.5,0.766 -0.024,0.428 -0.024,0.8 -0.024,2.9 v 0.8 h 0.053 c 0.229,-0.256 2.658,-2.724 3.143,-3.245 0.375,-0.39 0.722,-0.738 0.722,-0.969 a 0.265,0.265 0 0 0 -0.173,-0.281 c -0.069,-0.024 -0.122,-0.053 -0.122,-0.107 0,-0.054 0.066,-0.095 0.163,-0.095 0.267,0 0.682,0.041 1.008,0.041 0.066,0 0.948,-0.041 1.287,-0.041 0.148,0 0.2,0.029 0.2,0.095 0,0.066 -0.027,0.093 -0.133,0.093 a 2.021,2.021 0 0 0 -0.753,0.188 4.981,4.981 0 0 0 -1.448,1.156 c -0.339,0.321 -2.67,2.6 -2.955,2.941 0.351,0.387 3.141,3.274 3.691,3.783 a 6.219,6.219 0 0 0 2,1.529 2.436,2.436 0 0 0 0.832,0.174 c 0.093,0 0.173,0.027 0.173,0.082 0,0.055 -0.068,0.1 -0.294,0.1 h -0.685 c -0.377,0 -0.63,0 -0.925,-0.022 a 2.786,2.786 0 0 1 -1.626,-0.823 c -0.6,-0.494 -3.447,-3.571 -4.092,-4.359 h -0.066 v 1.313 c 0,1.29 0,2.351 0.066,2.914 0.039,0.389 0.122,0.686 0.521,0.738 a 4.32,4.32 0 0 0 0.524,0.053 c 0.084,0 0.108,0.04 0.108,0.082 0,0.067 -0.068,0.1 -0.216,0.1 -0.655,0 -1.434,-0.037 -1.544,-0.037 -0.11,0 -0.883,0.037 -1.287,0.037 -0.148,0 -0.215,-0.022 -0.215,-0.1 0,-0.042 0.027,-0.082 0.109,-0.082 a 1.933,1.933 0 0 0 0.4,-0.053 c 0.268,-0.052 0.336,-0.35 0.39,-0.738 0.068,-0.562 0.068,-1.624 0.068,-2.914 z"
           transform="translate(-698.517,-3387.527)"
           fill="#174895" />
      </g>
      <g
         id="Group_37153"
         data-name="Group 37153"
         transform="translate(25.271,88.834)">
        <path
           id="Path_42406"
           data-name="Path 42406"
           d="m 841.131,3415.621 c 1.059,0 3.192,-0.565 3.192,-3.865 0,-2.739 -1.663,-4.175 -3.527,-4.175 -1.972,0 -3.4,1.232 -3.4,3.718 0.004,2.659 1.604,4.322 3.735,4.322 z m -0.27,-8.469 c 2.658,0 4.672,1.624 4.672,4.282 a 4.573,4.573 0 0 1 -4.737,4.657 4.375,4.375 0 0 1 -4.616,-4.482 4.515,4.515 0 0 1 4.681,-4.456 z"
           transform="translate(-836.18,-3407.153)"
           fill="#174895" />
      </g>
      <g
         id="Group_37154"
         data-name="Group 37154"
         transform="translate(35.995,88.995)">
        <path
           id="Path_42407"
           data-name="Path 42407"
           d="m 993.319,3413.739 a 0.17,0.17 0 0 0 0.08,0.146 3.941,3.941 0 0 0 1.3,0.177 1.556,1.556 0 0 0 0.889,-0.2 2.049,2.049 0 0 0 0.708,-1.748 1.97,1.97 0 0 0 -2.039,-2.24 5.152,5.152 0 0 0 -0.847,0.066 0.148,0.148 0 0 0 -0.092,0.132 z m -1.022,-0.969 c 0,-1.767 0,-2.091 -0.028,-2.456 -0.026,-0.387 -0.092,-0.574 -0.482,-0.627 a 3.107,3.107 0 0 0 -0.4,-0.03 0.108,0.108 0 0 1 -0.093,-0.094 c 0,-0.066 0.051,-0.095 0.188,-0.095 0.536,0 1.325,0.028 1.4,0.028 0.116,0 1.11,-0.028 1.474,-0.028 a 3.86,3.86 0 0 1 2.2,0.5 2.008,2.008 0 0 1 0.818,1.558 3.328,3.328 0 0 1 -1.45,2.6 c 0.966,1.207 1.784,2.239 2.47,2.95 a 2.17,2.17 0 0 0 1.315,0.792 2.089,2.089 0 0 0 0.419,0.042 0.1,0.1 0 0 1 0.1,0.095 c 0,0.063 -0.068,0.092 -0.282,0.092 h -0.738 a 2.367,2.367 0 0 1 -1.26,-0.229 5.968,5.968 0 0 1 -1.612,-1.677 c -0.5,-0.617 -1.019,-1.356 -1.276,-1.666 a 0.177,0.177 0 0 0 -0.16,-0.068 l -1.5,-0.022 c -0.051,0 -0.08,0.022 -0.08,0.09 v 0.27 c 0,1.1 0,1.987 0.051,2.456 0.041,0.338 0.108,0.55 0.47,0.606 a 4.684,4.684 0 0 0 0.523,0.054 0.084,0.084 0 0 1 0.1,0.095 c 0,0.051 -0.057,0.092 -0.19,0.092 -0.642,0 -1.392,-0.041 -1.451,-0.041 -0.014,0 -0.8,0.041 -1.163,0.041 -0.124,0 -0.188,-0.029 -0.188,-0.092 a 0.089,0.089 0 0 1 0.092,-0.095 1.8,1.8 0 0 0 0.363,-0.054 c 0.229,-0.056 0.255,-0.268 0.309,-0.606 a 23.594,23.594 0 0 0 0.066,-2.471 z"
           transform="translate(-991.292,-3409.469)"
           fill="#174895" />
      </g>
      <g
         id="Group_37155"
         data-name="Group 37155"
         transform="translate(45.299,88.835)">
        <path
           id="Path_42408"
           data-name="Path 42408"
           d="m 1136.2,3414.474 c 0.041,0.405 0.122,1.02 0.605,1.18 a 2.5,2.5 0 0 0 0.763,0.107 c 0.056,0 0.1,0.029 0.1,0.082 0,0.069 -0.107,0.107 -0.243,0.107 -0.266,0 -1.582,-0.024 -2.013,-0.063 -0.283,-0.029 -0.336,-0.068 -0.336,-0.125 a 0.1,0.1 0 0 1 0.081,-0.092 c 0.066,-0.015 0.08,-0.188 0.054,-0.4 l -0.565,-5.773 h -0.026 l -2.846,5.826 c -0.241,0.5 -0.312,0.6 -0.416,0.6 -0.104,0 -0.176,-0.107 -0.4,-0.526 -0.311,-0.562 -1.089,-2.025 -1.381,-2.644 -0.35,-0.722 -1.3,-2.643 -1.5,-3.113 h -0.057 l -0.453,5.156 c -0.015,0.172 -0.015,0.387 -0.015,0.576 a 0.319,0.319 0 0 0 0.283,0.321 1.788,1.788 0 0 0 0.455,0.066 c 0.041,0 0.1,0.042 0.1,0.082 0,0.083 -0.081,0.107 -0.217,0.107 -0.443,0 -1,-0.038 -1.1,-0.038 -0.1,0 -0.672,0.038 -0.991,0.038 -0.122,0 -0.2,-0.024 -0.2,-0.107 0,-0.04 0.056,-0.082 0.124,-0.082 a 2.243,2.243 0 0 0 0.345,-0.036 c 0.39,-0.071 0.405,-0.485 0.458,-0.914 l 0.859,-7.447 c 0.015,-0.124 0.066,-0.2 0.136,-0.2 a 0.266,0.266 0 0 1 0.24,0.175 l 3.571,7.087 3.435,-7.074 c 0.056,-0.11 0.108,-0.188 0.188,-0.188 0.08,0 0.149,0.095 0.178,0.309 z"
           transform="translate(-1125.868,-3407.16)"
           fill="#174895" />
      </g>
      <g
         id="Group_37156"
         data-name="Group 37156"
         transform="translate(57.515,86.487)">
        <path
           id="Path_42409"
           data-name="Path 42409"
           d="m 1309.148,3373.906 c 0.065,0.124 0,0.163 -0.054,0.163 a 1.782,1.782 0 0 0 -0.4,0 8.571,8.571 0 0 0 -2.037,0.562 0.84,0.84 0 0 1 -0.2,0.069 0.079,0.079 0 0 1 -0.069,-0.082 c 0,-0.041 0.029,-0.066 0.1,-0.1 0.482,-0.337 1.73,-1.091 1.825,-1.142 0.229,-0.134 0.31,-0.175 0.375,-0.175 0.044,0 0.066,0.026 0.136,0.117 0.083,0.133 0.176,0.323 0.324,0.588 z m -1.047,6.78 c 0.054,0 0.054,-0.027 0.041,-0.082 l -1.171,-3.127 c -0.065,-0.174 -0.133,-0.174 -0.2,0 l -1.1,3.127 c -0.012,0.055 0,0.082 0.045,0.082 z m -1.315,-4.75 c 0.148,-0.377 0.2,-0.445 0.28,-0.445 0.124,0 0.161,0.16 0.282,0.416 0.217,0.485 2.109,5.195 2.834,6.926 0.428,1.02 0.752,1.167 1.007,1.247 a 1.558,1.558 0 0 0 0.468,0.068 c 0.069,0 0.149,0.027 0.149,0.094 0,0.067 -0.137,0.094 -0.27,0.094 -0.176,0 -1.046,0 -1.867,-0.028 -0.228,-0.013 -0.416,-0.013 -0.416,-0.078 0,-0.065 0.029,-0.054 0.083,-0.082 a 0.215,0.215 0 0 0 0.105,-0.309 l -1.061,-2.617 c -0.026,-0.054 -0.038,-0.066 -0.107,-0.066 h -2.726 a 0.12,0.12 0 0 0 -0.116,0.1 l -0.673,1.821 a 2.331,2.331 0 0 0 -0.173,0.767 c 0,0.228 0.2,0.309 0.4,0.309 h 0.107 c 0.093,0 0.122,0.041 0.122,0.094 0,0.053 -0.066,0.094 -0.175,0.094 -0.282,0 -0.928,-0.042 -1.062,-0.042 -0.134,0 -0.707,0.042 -1.193,0.042 -0.149,0 -0.226,-0.028 -0.226,-0.094 a 0.1,0.1 0 0 1 0.1,-0.094 2.987,2.987 0 0 0 0.351,-0.027 c 0.538,-0.066 0.765,-0.469 0.994,-1.049 z"
           transform="translate(-1302.559,-3373.198)"
           fill="#174895" />
      </g>
      <g
         id="Group_37157"
         data-name="Group 37157"
         transform="translate(67.564,88.834)">
        <path
           id="Path_42410"
           data-name="Path 42410"
           d="m 1449.554,3414.378 c 0.027,0.94 0.134,1.224 0.455,1.3 a 2.6,2.6 0 0 0 0.589,0.068 0.094,0.094 0 0 1 0.1,0.1 c 0,0.068 -0.081,0.092 -0.217,0.092 -0.67,0 -1.141,-0.036 -1.248,-0.036 -0.107,0 -0.6,0.036 -1.139,0.036 -0.122,0 -0.19,-0.012 -0.19,-0.092 a 0.1,0.1 0 0 1 0.1,-0.1 1.706,1.706 0 0 0 0.481,-0.068 c 0.3,-0.076 0.337,-0.387 0.337,-1.419 v -6.536 c 0,-0.455 0.066,-0.578 0.16,-0.578 0.134,0 0.336,0.229 0.455,0.348 0.188,0.19 1.906,2.016 3.733,3.893 1.166,1.207 2.429,2.564 2.792,2.941 l -0.122,-5.719 c -0.012,-0.736 -0.081,-0.992 -0.441,-1.057 a 3.352,3.352 0 0 0 -0.577,-0.057 0.092,0.092 0 0 1 -0.095,-0.105 c 0,-0.068 0.095,-0.081 0.23,-0.081 0.535,0 1.1,0.027 1.231,0.027 0.131,0 0.526,-0.027 1.007,-0.027 0.12,0 0.215,0.014 0.215,0.081 a 0.131,0.131 0 0 1 -0.134,0.105 1.226,1.226 0 0 0 -0.28,0.029 c -0.392,0.08 -0.419,0.309 -0.419,0.99 l -0.024,6.686 c 0,0.749 -0.014,0.821 -0.1,0.821 -0.12,0 -0.244,-0.1 -0.9,-0.7 -0.124,-0.108 -1.825,-1.784 -3.074,-3.087 -1.368,-1.437 -2.7,-2.829 -3.06,-3.233 z"
           transform="translate(-1447.901,-3407.145)"
           fill="#174895" />
      </g>
      <g
         id="Group_37158"
         data-name="Group 37158"
         transform="translate(77.901,88.994)">
        <path
           id="Path_42411"
           data-name="Path 42411"
           d="m 1601.16,3415.127 a 2.074,2.074 0 0 0 -0.253,-1.171 c -0.095,-0.175 -1.692,-2.71 -2.1,-3.315 a 2.875,2.875 0 0 0 -0.776,-0.83 1.142,1.142 0 0 0 -0.494,-0.163 0.115,0.115 0 0 1 -0.121,-0.107 c 0,-0.052 0.036,-0.081 0.145,-0.081 0.229,0 1.117,0.029 1.171,0.029 0.076,0 0.564,-0.029 1.019,-0.029 0.134,0 0.158,0.029 0.158,0.081 0,0.052 -0.077,0.082 -0.185,0.121 a 0.2,0.2 0 0 0 -0.148,0.188 0.944,0.944 0 0 0 0.161,0.444 l 2.147,3.555 c 0.244,-0.482 1.718,-2.926 1.933,-3.3 a 1.241,1.241 0 0 0 0.2,-0.593 0.264,0.264 0 0 0 -0.187,-0.295 c -0.109,-0.029 -0.178,-0.08 -0.178,-0.134 0,-0.054 0.069,-0.068 0.188,-0.068 0.309,0 0.728,0.029 0.82,0.029 0.092,0 0.926,-0.029 1.153,-0.029 0.084,0 0.147,0.029 0.147,0.068 a 0.137,0.137 0 0 1 -0.147,0.12 1.2,1.2 0 0 0 -0.547,0.149 2.02,2.02 0 0 0 -0.594,0.564 c -0.385,0.457 -2.053,3.14 -2.294,3.625 a 2.285,2.285 0 0 0 -0.147,1.14 v 0.978 c 0,0.19 0,0.672 0.042,1.139 0.029,0.339 0.105,0.551 0.455,0.607 a 4.84,4.84 0 0 0 0.538,0.052 0.092,0.092 0 0 1 0.095,0.095 c 0,0.053 -0.068,0.091 -0.188,0.091 -0.658,0 -1.424,-0.037 -1.488,-0.037 -0.064,0 -0.808,0.037 -1.159,0.037 -0.132,0 -0.185,-0.024 -0.185,-0.091 a 0.091,0.091 0 0 1 0.1,-0.095 1.635,1.635 0 0 0 0.345,-0.052 c 0.241,-0.056 0.326,-0.268 0.348,-0.607 0.029,-0.467 0.029,-0.949 0.029,-1.139 z"
           transform="translate(-1597.418,-3409.461)"
           fill="#174895" />
      </g>
      <g
         id="Group_37159"
         data-name="Group 37159"
         transform="translate(85.387,88.778)">
        <path
           id="Path_42412"
           data-name="Path 42412"
           d="m 1711.247,3411.541 c 0.054,0 0.054,-0.029 0.042,-0.082 l -1.171,-3.128 c -0.065,-0.173 -0.134,-0.173 -0.2,0 l -1.1,3.128 c -0.012,0.052 0,0.082 0.041,0.082 z m -1.313,-4.749 c 0.146,-0.377 0.2,-0.448 0.28,-0.448 0.124,0 0.161,0.165 0.283,0.417 0.217,0.485 2.106,5.2 2.832,6.926 0.428,1.02 0.75,1.167 1.007,1.247 a 1.64,1.64 0 0 0 0.467,0.067 c 0.069,0 0.151,0.028 0.151,0.094 0,0.066 -0.137,0.095 -0.273,0.095 -0.173,0 -1.043,0 -1.865,-0.029 -0.225,-0.012 -0.413,-0.012 -0.413,-0.078 0,-0.066 0.027,-0.054 0.08,-0.082 a 0.216,0.216 0 0 0 0.108,-0.308 l -1.062,-2.617 c -0.027,-0.055 -0.039,-0.066 -0.11,-0.066 h -2.719 a 0.125,0.125 0 0 0 -0.121,0.094 l -0.67,1.824 a 2.385,2.385 0 0 0 -0.174,0.766 c 0,0.227 0.2,0.308 0.4,0.308 h 0.107 c 0.095,0 0.121,0.042 0.121,0.094 0,0.052 -0.068,0.095 -0.172,0.095 -0.283,0 -0.931,-0.041 -1.064,-0.041 -0.133,0 -0.71,0.041 -1.192,0.041 -0.149,0 -0.229,-0.029 -0.229,-0.095 a 0.1,0.1 0 0 1 0.105,-0.094 3.3,3.3 0 0 0 0.351,-0.028 c 0.535,-0.067 0.764,-0.467 0.993,-1.045 z"
           transform="translate(-1705.705,-3406.344)"
           fill="#174895" />
      </g>
      <g
         id="Group_37160"
         data-name="Group 37160"
         transform="translate(141.266,0.024)">
        <rect
           id="Rectangle_15693"
           data-name="Rectangle 15693"
           width="97.398003"
           height="65.100998"
           fill="#174895"
           x="0"
           y="0" />
      </g>
      <g
         id="Group_37161"
         data-name="Group 37161"
         transform="translate(186.445,7.003)">
        <path
           id="Path_42413"
           data-name="Path 42413"
           d="m 3171.047,2228.718 -2.2,1.508 0.842,-2.477 -2.257,-1.6 h 2.8 l 0.89,-2.62 0.818,2.62 h 2.79 l -2.295,1.606 0.76,2.487 z"
           transform="translate(-3167.428,-2223.531)"
           fill="#ffcb27" />
      </g>
      <g
         id="Group_37162"
         data-name="Group 37162"
         transform="translate(186.445,51.494)">
        <path
           id="Path_42414"
           data-name="Path 42414"
           d="m 3171.047,2872.246 -2.2,1.514 0.842,-2.479 -2.257,-1.6 h 2.8 l 0.89,-2.625 0.818,2.625 h 2.79 l -2.295,1.6 0.76,2.485 z"
           transform="translate(-3167.428,-2867.057)"
           fill="#ffcb27" />
      </g>
      <g
         id="Group_37163"
         data-name="Group 37163"
         transform="translate(164.255,29.217)">
        <path
           id="Path_42415"
           data-name="Path 42415"
           d="m 2850.085,2550.023 -2.2,1.512 0.842,-2.477 -2.261,-1.6 h 2.808 l 0.89,-2.622 0.815,2.622 h 2.792 l -2.29,1.606 0.755,2.486 z"
           transform="translate(-2846.465,-2544.835)"
           fill="#ffcb27" />
      </g>
      <g
         id="Group_37164"
         data-name="Group 37164"
         transform="translate(167.414,17.885)">
        <path
           id="Path_42416"
           data-name="Path 42416"
           d="m 2895.775,2386.115 -2.2,1.511 0.845,-2.477 -2.26,-1.6 h 2.805 l 0.891,-2.625 0.813,2.625 h 2.795 l -2.295,1.6 0.757,2.488 z"
           transform="translate(-2892.156,-2380.927)"
           fill="#ffcb27" />
      </g>
      <g
         id="Group_37165"
         data-name="Group 37165"
         transform="translate(175.255,9.915)">
        <path
           id="Path_42417"
           data-name="Path 42417"
           d="m 3009.183,2270.834 -2.2,1.513 0.844,-2.48 -2.26,-1.6 h 2.808 l 0.885,-2.623 0.817,2.623 h 2.8 l -2.295,1.6 0.759,2.487 z"
           transform="translate(-3005.565,-2265.647)"
           fill="#ffcb27" />
      </g>
      <g
         id="Group_37166"
         data-name="Group 37166"
         transform="translate(197.251,9.915)">
        <path
           id="Path_42418"
           data-name="Path 42418"
           d="m 3327.337,2270.834 -2.2,1.513 0.844,-2.48 -2.26,-1.6 h 2.808 l 0.886,-2.623 0.817,2.623 h 2.8 l -2.294,1.6 0.755,2.487 z"
           transform="translate(-3323.719,-2265.647)"
           fill="#ffcb27" />
      </g>
      <g
         id="Group_37167"
         data-name="Group 37167"
         transform="translate(205.284,17.885)">
        <path
           id="Path_42419"
           data-name="Path 42419"
           d="m 3443.537,2386.115 -2.2,1.511 0.845,-2.477 -2.263,-1.6 h 2.807 l 0.89,-2.625 0.817,2.625 h 2.795 l -2.295,1.6 0.756,2.488 z"
           transform="translate(-3439.915,-2380.927)"
           fill="#ffcb27" />
      </g>
      <g
         id="Group_37168"
         data-name="Group 37168"
         transform="translate(167.318,40.261)">
        <path
           id="Path_42420"
           data-name="Path 42420"
           d="m 2894.392,2709.761 -2.2,1.514 0.842,-2.483 -2.257,-1.6 h 2.8 l 0.892,-2.625 0.818,2.625 h 2.79 l -2.294,1.6 0.76,2.488 z"
           transform="translate(-2890.773,-2704.573)"
           fill="#ffcb27" />
      </g>
      <g
         id="Group_37169"
         data-name="Group 37169"
         transform="translate(175.161,48.521)">
        <path
           id="Path_42421"
           data-name="Path 42421"
           d="m 3007.818,2829.232 -2.2,1.514 0.842,-2.48 -2.257,-1.6 h 2.8 l 0.89,-2.62 0.815,2.62 h 2.8 l -2.3,1.609 0.759,2.485 z"
           transform="translate(-3004.202,-2824.048)"
           fill="#ffcb27" />
      </g>
      <g
         id="Group_37170"
         data-name="Group 37170"
         transform="translate(197.445,48.521)">
        <path
           id="Path_42422"
           data-name="Path 42422"
           d="m 3330.151,2829.232 -2.207,1.514 0.845,-2.48 -2.257,-1.6 h 2.8 l 0.894,-2.62 0.818,2.62 h 2.79 l -2.294,1.609 0.759,2.485 z"
           transform="translate(-3326.532,-2824.048)"
           fill="#ffcb27" />
      </g>
      <g
         id="Group_37171"
         data-name="Group 37171"
         transform="translate(205.383,40.261)">
        <path
           id="Path_42423"
           data-name="Path 42423"
           d="m 3444.96,2709.761 -2.2,1.514 0.842,-2.483 -2.257,-1.6 h 2.8 l 0.891,-2.625 0.815,2.625 h 2.793 l -2.292,1.6 0.754,2.488 z"
           transform="translate(-3441.344,-2704.573)"
           fill="#ffcb27" />
      </g>
      <g
         id="Group_37172"
         data-name="Group 37172"
         transform="translate(208.346,29.217)">
        <path
           id="Path_42424"
           data-name="Path 42424"
           d="m 3487.817,2550.023 -2.2,1.512 0.844,-2.477 -2.26,-1.6 h 2.807 l 0.887,-2.622 0.818,2.622 h 2.8 l -2.3,1.606 0.759,2.486 z"
           transform="translate(-3484.198,-2544.835)"
           fill="#ffcb27" />
      </g>
      <g
         id="Group_37173"
         data-name="Group 37173"
         transform="translate(141.258,74.657)">
        <path
           id="Path_42425"
           data-name="Path 42425"
           d="m 2516.34,3207.22 h 2.953 l -0.908,-2.413 q -0.416,-1.1 -0.618,-1.806 a 11.063,11.063 0 0 1 -0.47,1.665 z m -2.513,3.577 3.345,-8.711 h 1.241 l 3.566,8.711 h -1.313 l -1.016,-2.638 h -3.643 l -0.955,2.638 z"
           transform="translate(-2513.827,-3202.086)"
           fill="#174895" />
      </g>
      <g
         id="Group_37174"
         data-name="Group 37174"
         transform="translate(150.769,77.057)">
        <path
           id="Path_42426"
           data-name="Path 42426"
           d="m 2651.394,3243.114 v -0.867 l 4.018,-4.613 c -0.456,0.024 -0.857,0.036 -1.207,0.036 h -2.573 v -0.868 h 5.159 v 0.707 l -3.419,4.006 -0.658,0.732 c 0.479,-0.037 0.928,-0.054 1.349,-0.054 h 2.918 v 0.921 z"
           transform="translate(-2651.394,-3236.802)"
           fill="#174895" />
      </g>
      <g
         id="Group_37175"
         data-name="Group 37175"
         transform="translate(162.471,74.657)">
        <path
           id="Path_42427"
           data-name="Path 42427"
           d="m 2820.665,3210.8 v -8.711 h 6.3 v 1.028 h -5.147 v 2.668 h 4.82 v 1.023 h -4.82 v 2.964 h 5.347 v 1.029 z"
           transform="translate(-2820.665,-3202.086)"
           fill="#174895" />
      </g>
      <g
         id="Group_37176"
         data-name="Group 37176"
         transform="translate(170.878,77.057)">
        <path
           id="Path_42428"
           data-name="Path 42428"
           d="m 2946.42,3243.114 v -0.927 a 2.311,2.311 0 0 1 -2,1.07 2.533,2.533 0 0 1 -1.042,-0.214 1.727,1.727 0 0 1 -0.72,-0.538 2.021,2.021 0 0 1 -0.33,-0.794 5.574,5.574 0 0 1 -0.064,-1 v -3.91 h 1.069 v 3.5 a 6.235,6.235 0 0 0 0.065,1.128 1.126,1.126 0 0 0 0.428,0.663 1.325,1.325 0 0 0 0.809,0.24 1.743,1.743 0 0 0 0.9,-0.247 1.359,1.359 0 0 0 0.6,-0.67 3.35,3.35 0 0 0 0.176,-1.233 v -3.382 h 1.068 v 6.312 z"
           transform="translate(-2942.261,-3236.802)"
           fill="#174895" />
      </g>
      <g
         id="Group_37177"
         data-name="Group 37177"
         transform="translate(178.301,76.914)">
        <path
           id="Path_42429"
           data-name="Path 42429"
           d="m 3049.632,3241.186 v -6.311 h 0.963 v 0.957 a 2.626,2.626 0 0 1 0.679,-0.886 1.2,1.2 0 0 1 0.687,-0.214 2.09,2.09 0 0 1 1.1,0.345 l -0.369,0.993 a 1.533,1.533 0 0 0 -0.783,-0.232 1.022,1.022 0 0 0 -0.63,0.211 1.146,1.146 0 0 0 -0.4,0.586 4.156,4.156 0 0 0 -0.179,1.248 v 3.3 z"
           transform="translate(-3049.632,-3234.731)"
           fill="#174895" />
      </g>
      <g
         id="Group_37178"
         data-name="Group 37178"
         transform="translate(182.667,74.609)">
        <path
           id="Path_42430"
           data-name="Path 42430"
           d="m 3115.147,3203.053 0.79,-1.663 h 1.4 l -1.306,1.663 z m -1.267,3.94 a 2.683,2.683 0 0 0 0.53,1.817 1.759,1.759 0 0 0 2.656,0 2.743,2.743 0 0 0 0.53,-1.849 2.606,2.606 0 0 0 -0.533,-1.775 1.763,1.763 0 0 0 -2.653,0 2.664,2.664 0 0 0 -0.53,1.807 z m -1.1,0 a 3.255,3.255 0 0 1 0.975,-2.6 2.943,2.943 0 0 1 1.986,-0.7 2.83,2.83 0 0 1 2.127,0.854 3.245,3.245 0 0 1 0.824,2.356 4.181,4.181 0 0 1 -0.364,1.915 2.569,2.569 0 0 1 -1.064,1.086 3.091,3.091 0 0 1 -1.523,0.386 2.835,2.835 0 0 1 -2.143,-0.85 3.391,3.391 0 0 1 -0.817,-2.447 z"
           transform="translate(-3112.781,-3201.39)"
           fill="#174895" />
      </g>
      <g
         id="Group_37179"
         data-name="Group 37179"
         transform="translate(190.545,76.913)">
        <path
           id="Path_42431"
           data-name="Path 42431"
           d="m 3227.694,3238.059 a 2.731,2.731 0 0 0 0.493,1.8 1.51,1.51 0 0 0 1.194,0.584 1.548,1.548 0 0 0 1.221,-0.6 2.873,2.873 0 0 0 0.509,-1.871 2.787,2.787 0 0 0 -0.5,-1.806 1.494,1.494 0 0 0 -1.186,-0.6 1.538,1.538 0 0 0 -1.208,0.639 2.851,2.851 0 0 0 -0.523,1.854 z m -0.97,5.54 v -8.732 h 0.975 v 0.821 a 2.408,2.408 0 0 1 0.78,-0.722 2.121,2.121 0 0 1 1.051,-0.243 2.5,2.5 0 0 1 1.427,0.417 2.547,2.547 0 0 1 0.932,1.174 4.553,4.553 0 0 1 -0.032,3.407 2.639,2.639 0 0 1 -2.4,1.6 2.031,2.031 0 0 1 -0.96,-0.224 2.2,2.2 0 0 1 -0.7,-0.571 v 3.073 z"
           transform="translate(-3226.723,-3234.723)"
           fill="#174895" />
      </g>
      <g
         id="Group_37180"
         data-name="Group 37180"
         transform="translate(197.608,76.913)">
        <path
           id="Path_42432"
           data-name="Path 42432"
           d="m 3333.276,3238.007 a 7.851,7.851 0 0 1 -1.746,0.406 4.011,4.011 0 0 0 -0.934,0.214 0.937,0.937 0 0 0 -0.422,0.348 0.946,0.946 0 0 0 0.176,1.22 1.394,1.394 0 0 0 0.949,0.286 2.207,2.207 0 0 0 1.1,-0.271 1.67,1.67 0 0 0 0.708,-0.74 2.624,2.624 0 0 0 0.17,-1.07 z m 0.091,2.389 a 3.976,3.976 0 0 1 -1.144,0.714 3.337,3.337 0 0 1 -1.179,0.206 2.293,2.293 0 0 1 -1.6,-0.508 1.671,1.671 0 0 1 -0.557,-1.3 1.712,1.712 0 0 1 0.211,-0.845 1.732,1.732 0 0 1 0.551,-0.616 2.63,2.63 0 0 1 0.77,-0.351 8.1,8.1 0 0 1 0.951,-0.161 9.752,9.752 0 0 0 1.907,-0.368 c 0,-0.146 0.01,-0.239 0.01,-0.279 a 1.18,1.18 0 0 0 -0.3,-0.922 1.79,1.79 0 0 0 -1.217,-0.363 1.884,1.884 0 0 0 -1.115,0.265 1.629,1.629 0 0 0 -0.534,0.937 l -1.044,-0.145 a 2.56,2.56 0 0 1 0.47,-1.083 2.039,2.039 0 0 1 0.943,-0.636 4.21,4.21 0 0 1 1.434,-0.225 3.8,3.8 0 0 1 1.313,0.191 1.74,1.74 0 0 1 0.741,0.479 1.667,1.667 0 0 1 0.333,0.728 6.122,6.122 0 0 1 0.053,0.985 v 1.428 a 14.48,14.48 0 0 0 0.071,1.887 2.366,2.366 0 0 0 0.268,0.756 h -1.116 a 2.226,2.226 0 0 1 -0.218,-0.77 z"
           transform="translate(-3328.886,-3234.719)"
           fill="#174895" />
      </g>
      <g
         id="Group_37181"
         data-name="Group 37181"
         transform="translate(205.389,74.656)">
        <path
           id="Path_42433"
           data-name="Path 42433"
           d="m 3441.427,3204.478 h 1.07 v 6.311 h -1.07 z m 0,-2.4 h 1.07 v 1.23 h -1.07 z"
           transform="translate(-3441.427,-3202.077)"
           fill="#174895" />
      </g>
      <g
         id="Group_37182"
         data-name="Group 37182"
         transform="translate(213.131,74.657)">
        <path
           id="Path_42434"
           data-name="Path 42434"
           d="m 3559.107,3202.082 h 1.154 v 5.034 a 5.941,5.941 0 0 1 -0.3,2.087 2.535,2.535 0 0 1 -1.073,1.256 3.8,3.8 0 0 1 -2.034,0.483 4.183,4.183 0 0 1 -2,-0.422 2.4,2.4 0 0 1 -1.112,-1.222 5.817,5.817 0 0 1 -0.333,-2.183 v -5.034 h 1.152 v 5.028 a 4.858,4.858 0 0 0 0.213,1.672 1.591,1.591 0 0 0 0.724,0.83 2.515,2.515 0 0 0 1.257,0.291 2.414,2.414 0 0 0 1.814,-0.576 3.332,3.332 0 0 0 0.54,-2.218 z"
           transform="translate(-3553.407,-3202.082)"
           fill="#174895" />
      </g>
      <g
         id="Group_37183"
         data-name="Group 37183"
         transform="translate(222.454,76.914)">
        <path
           id="Path_42435"
           data-name="Path 42435"
           d="m 3688.261,3241.186 v -6.311 h 0.963 v 0.9 a 2.272,2.272 0 0 1 2.01,-1.042 2.626,2.626 0 0 1 1.049,0.207 1.653,1.653 0 0 1 0.717,0.536 2.1,2.1 0 0 1 0.331,0.791 6.023,6.023 0 0 1 0.059,1.04 v 3.881 h -1.07 v -3.839 a 2.88,2.88 0 0 0 -0.125,-0.978 1.012,1.012 0 0 0 -0.443,-0.517 1.392,1.392 0 0 0 -0.745,-0.193 1.74,1.74 0 0 0 -1.18,0.434 2.143,2.143 0 0 0 -0.5,1.645 v 3.447 z"
           transform="translate(-3688.261,-3234.731)"
           fill="#174895" />
      </g>
      <g
         id="Group_37184"
         data-name="Group 37184"
         transform="translate(229.87,74.656)">
        <path
           id="Path_42436"
           data-name="Path 42436"
           d="m 3795.528,3204.478 h 1.07 v 6.311 h -1.07 z m 0,-2.4 h 1.07 v 1.23 h -1.07 z"
           transform="translate(-3795.528,-3202.077)"
           fill="#174895" />
      </g>
      <g
         id="Group_37185"
         data-name="Group 37185"
         transform="translate(232.898,74.609)">
        <path
           id="Path_42437"
           data-name="Path 42437"
           d="m 3841.688,3203.053 0.791,-1.663 h 1.4 l -1.308,1.663 z m -1.265,3.94 a 2.682,2.682 0 0 0 0.53,1.817 1.757,1.757 0 0 0 2.655,0 2.744,2.744 0 0 0 0.53,-1.849 2.608,2.608 0 0 0 -0.532,-1.775 1.762,1.762 0 0 0 -2.653,0 2.663,2.663 0 0 0 -0.531,1.807 z m -1.1,0 a 3.251,3.251 0 0 1 0.975,-2.6 2.939,2.939 0 0 1 1.986,-0.7 2.83,2.83 0 0 1 2.127,0.854 3.245,3.245 0 0 1 0.824,2.356 4.178,4.178 0 0 1 -0.365,1.915 2.579,2.579 0 0 1 -1.065,1.086 3.083,3.083 0 0 1 -1.522,0.386 2.838,2.838 0 0 1 -2.144,-0.85 3.394,3.394 0 0 1 -0.815,-2.447 z"
           transform="translate(-3839.324,-3201.39)"
           fill="#174895" />
      </g>
      <g
         id="Group_37186"
         data-name="Group 37186"
         transform="translate(124.946,89.19)">
        <path
           id="Path_42438"
           data-name="Path 42438"
           d="m 2280.813,3419.85 0.154,0.946 a 3.944,3.944 0 0 1 -0.808,0.093 1.843,1.843 0 0 1 -0.9,-0.184 1.025,1.025 0 0 1 -0.452,-0.484 3.823,3.823 0 0 1 -0.131,-1.262 v -3.632 h -0.783 v -0.832 h 0.783 v -1.564 l 1.063,-0.642 v 2.206 h 1.077 v 0.832 h -1.077 v 3.691 a 1.859,1.859 0 0 0 0.058,0.589 0.47,0.47 0 0 0 0.184,0.208 0.717,0.717 0 0 0 0.366,0.077 3.339,3.339 0 0 0 0.466,-0.042 z"
           transform="translate(-2277.889,-3412.29)"
           fill="#174895" />
      </g>
      <g
         id="Group_37187"
         data-name="Group 37187"
         transform="translate(129.53,88.947)">
        <path
           id="Path_42439"
           data-name="Path 42439"
           d="m 2346.509,3410.442 0.789,-1.665 h 1.4 l -1.308,1.665 z m 2.081,3.928 a 7.757,7.757 0 0 1 -1.748,0.4 4.051,4.051 0 0 0 -0.933,0.216 0.934,0.934 0 0 0 -0.247,1.568 1.394,1.394 0 0 0 0.948,0.285 2.2,2.2 0 0 0 1.1,-0.271 1.669,1.669 0 0 0 0.708,-0.738 2.623,2.623 0 0 0 0.172,-1.071 z m 0.089,2.388 a 3.98,3.98 0 0 1 -1.144,0.714 3.317,3.317 0 0 1 -1.181,0.21 2.307,2.307 0 0 1 -1.6,-0.51 1.679,1.679 0 0 1 -0.558,-1.3 1.747,1.747 0 0 1 0.21,-0.845 1.725,1.725 0 0 1 0.554,-0.615 2.561,2.561 0 0 1 0.769,-0.351 7.516,7.516 0 0 1 0.95,-0.16 9.8,9.8 0 0 0 1.909,-0.369 c 0,-0.146 0.01,-0.24 0.01,-0.28 a 1.187,1.187 0 0 0 -0.3,-0.921 1.8,1.8 0 0 0 -1.219,-0.362 1.88,1.88 0 0 0 -1.114,0.264 1.606,1.606 0 0 0 -0.534,0.937 l -1.046,-0.144 a 2.618,2.618 0 0 1 0.469,-1.085 2.05,2.05 0 0 1 0.945,-0.634 4.248,4.248 0 0 1 1.434,-0.223 3.809,3.809 0 0 1 1.314,0.19 1.76,1.76 0 0 1 0.742,0.477 1.707,1.707 0 0 1 0.332,0.729 5.9,5.9 0 0 1 0.054,0.987 v 1.426 a 14.914,14.914 0 0 0 0.068,1.887 2.34,2.34 0 0 0 0.271,0.758 h -1.118 a 2.267,2.267 0 0 1 -0.214,-0.78 z"
           transform="translate(-2344.197,-3408.777)"
           fill="#174895" />
      </g>
      <g
         id="Group_37188"
         data-name="Group 37188"
         transform="translate(137.481,91.253)">
        <path
           id="Path_42440"
           data-name="Path 42440"
           d="m 2459.2,3448.595 v -6.311 h 0.963 v 0.955 a 2.624,2.624 0 0 1 0.681,-0.886 1.192,1.192 0 0 1 0.685,-0.212 2.09,2.09 0 0 1 1.1,0.344 l -0.367,0.994 a 1.527,1.527 0 0 0 -0.784,-0.233 1.01,1.01 0 0 0 -0.63,0.212 1.136,1.136 0 0 0 -0.4,0.586 4.143,4.143 0 0 0 -0.178,1.246 v 3.306 z"
           transform="translate(-2459.197,-3442.14)"
           fill="#174895" />
      </g>
      <g
         id="Group_37189"
         data-name="Group 37189"
         transform="translate(142.098,91.253)">
        <path
           id="Path_42441"
           data-name="Path 42441"
           d="m 2525.981,3446.71 1.059,-0.166 a 1.477,1.477 0 0 0 0.5,0.975 1.732,1.732 0 0 0 1.137,0.339 1.675,1.675 0 0 0 1.1,-0.3 0.9,0.9 0 0 0 0.355,-0.7 0.651,0.651 0 0 0 -0.315,-0.571 4.66,4.66 0 0 0 -1.094,-0.362 10.242,10.242 0 0 1 -1.632,-0.514 1.555,1.555 0 0 1 -0.924,-1.448 1.634,1.634 0 0 1 0.193,-0.782 1.734,1.734 0 0 1 0.527,-0.6 2.108,2.108 0 0 1 0.679,-0.312 3.2,3.2 0 0 1 0.924,-0.128 3.7,3.7 0 0 1 1.3,0.212 1.8,1.8 0 0 1 0.83,0.58 2.274,2.274 0 0 1 0.368,0.979 l -1.045,0.142 a 1.15,1.15 0 0 0 -0.413,-0.762 1.527,1.527 0 0 0 -0.966,-0.271 1.742,1.742 0 0 0 -1.051,0.243 0.707,0.707 0 0 0 -0.315,0.571 0.592,0.592 0 0 0 0.129,0.375 0.957,0.957 0 0 0 0.41,0.285 c 0.107,0.039 0.422,0.129 0.946,0.274 a 13.093,13.093 0 0 1 1.583,0.495 1.628,1.628 0 0 1 0.705,0.562 1.584,1.584 0 0 1 0.255,0.916 1.792,1.792 0 0 1 -0.312,1.007 2.009,2.009 0 0 1 -0.9,0.732 3.291,3.291 0 0 1 -1.331,0.26 2.968,2.968 0 0 1 -1.876,-0.513 2.383,2.383 0 0 1 -0.826,-1.518 z"
           transform="translate(-2525.981,-3442.14)"
           fill="#174895" />
      </g>
      <g
         id="Group_37190"
         data-name="Group 37190"
         transform="translate(148.763,88.846)">
        <path
           id="Path_42442"
           data-name="Path 42442"
           d="m 2623.33,3416.177 v -5.477 h -0.945 v -0.83 h 0.945 v -0.672 a 2.913,2.913 0 0 1 0.113,-0.946 1.371,1.371 0 0 1 0.546,-0.674 1.957,1.957 0 0 1 1.089,-0.259 5.277,5.277 0 0 1 1,0.107 l -0.16,0.934 a 3.5,3.5 0 0 0 -0.63,-0.059 0.928,0.928 0 0 0 -0.689,0.206 1.127,1.127 0 0 0 -0.2,0.779 v 0.583 h 1.229 v 0.83 h -1.229 v 5.481 z"
           transform="translate(-2622.385,-3407.315)"
           fill="#174895" />
      </g>
      <g
         id="Group_37191"
         data-name="Group 37191"
         transform="translate(153.993,88.995)">
        <path
           id="Path_42443"
           data-name="Path 42443"
           d="m 2698.031,3411.874 h 1.071 v 6.311 h -1.071 z m 0,-2.4 h 1.071 v 1.229 h -1.071 z"
           transform="translate(-2698.031,-3409.473)"
           fill="#174895" />
      </g>
      <g
         id="Group_37192"
         data-name="Group 37192"
         transform="translate(157.516,91.253)">
        <path
           id="Path_42444"
           data-name="Path 42444"
           d="m 2748.99,3448.595 v -6.311 h 0.964 v 0.9 a 2.268,2.268 0 0 1 2.01,-1.04 2.622,2.622 0 0 1 1.047,0.205 1.653,1.653 0 0 1 0.717,0.538 2.061,2.061 0 0 1 0.332,0.79 6.1,6.1 0 0 1 0.059,1.041 v 3.881 h -1.068 v -3.84 a 2.837,2.837 0 0 0 -0.125,-0.977 1.02,1.02 0 0 0 -0.443,-0.517 1.394,1.394 0 0 0 -0.746,-0.194 1.736,1.736 0 0 0 -1.179,0.434 2.136,2.136 0 0 0 -0.5,1.646 v 3.447 z"
           transform="translate(-2748.99,-3442.14)"
           fill="#174895" />
      </g>
      <g
         id="Group_37193"
         data-name="Group 37193"
         transform="translate(164.751,91.252)">
        <path
           id="Path_42445"
           data-name="Path 42445"
           d="m 2858.023,3445.415 a 7.917,7.917 0 0 1 -1.748,0.4 4.042,4.042 0 0 0 -0.931,0.214 0.939,0.939 0 0 0 -0.423,0.348 0.947,0.947 0 0 0 0.174,1.22 1.4,1.4 0 0 0 0.949,0.286 2.2,2.2 0 0 0 1.1,-0.271 1.673,1.673 0 0 0 0.708,-0.739 2.6,2.6 0 0 0 0.172,-1.071 z m 0.09,2.388 a 4,4 0 0 1 -1.145,0.714 3.338,3.338 0 0 1 -1.18,0.208 2.292,2.292 0 0 1 -1.6,-0.509 1.674,1.674 0 0 1 -0.559,-1.3 1.772,1.772 0 0 1 0.763,-1.461 2.6,2.6 0 0 1 0.772,-0.349 7.615,7.615 0 0 1 0.948,-0.162 9.762,9.762 0 0 0 1.909,-0.369 c 0,-0.145 0.01,-0.24 0.01,-0.279 a 1.182,1.182 0 0 0 -0.3,-0.922 1.79,1.79 0 0 0 -1.219,-0.361 1.883,1.883 0 0 0 -1.114,0.265 1.6,1.6 0 0 0 -0.532,0.935 l -1.046,-0.145 a 2.591,2.591 0 0 1 0.469,-1.083 2.035,2.035 0 0 1 0.945,-0.634 4.2,4.2 0 0 1 1.433,-0.224 3.807,3.807 0 0 1 1.314,0.19 1.75,1.75 0 0 1 0.743,0.479 1.711,1.711 0 0 1 0.333,0.728 6.088,6.088 0 0 1 0.054,0.987 v 1.427 a 14.988,14.988 0 0 0 0.068,1.888 2.408,2.408 0 0 0 0.27,0.758 h -1.118 a 2.305,2.305 0 0 1 -0.214,-0.784 z"
           transform="translate(-2853.632,-3442.128)"
           fill="#174895" />
      </g>
      <g
         id="Group_37194"
         data-name="Group 37194"
         transform="translate(172.709,91.253)">
        <path
           id="Path_42446"
           data-name="Path 42446"
           d="m 2968.74,3448.595 v -6.311 h 0.963 v 0.9 a 2.268,2.268 0 0 1 2.01,-1.04 2.614,2.614 0 0 1 1.047,0.205 1.653,1.653 0 0 1 0.717,0.538 2.085,2.085 0 0 1 0.333,0.79 6.237,6.237 0 0 1 0.059,1.041 v 3.881 h -1.069 v -3.84 a 2.823,2.823 0 0 0 -0.125,-0.977 1.015,1.015 0 0 0 -0.443,-0.517 1.392,1.392 0 0 0 -0.746,-0.194 1.73,1.73 0 0 0 -1.178,0.434 2.131,2.131 0 0 0 -0.5,1.646 v 3.447 z"
           transform="translate(-2968.74,-3442.14)"
           fill="#174895" />
      </g>
      <g
         id="Group_37195"
         data-name="Group 37195"
         transform="translate(179.867,91.253)">
        <path
           id="Path_42447"
           data-name="Path 42447"
           d="m 3072.273,3446.71 1.057,-0.166 a 1.487,1.487 0 0 0 0.5,0.975 1.733,1.733 0 0 0 1.137,0.339 1.677,1.677 0 0 0 1.1,-0.3 0.893,0.893 0 0 0 0.355,-0.7 0.65,0.65 0 0 0 -0.315,-0.571 4.652,4.652 0 0 0 -1.094,-0.362 10.294,10.294 0 0 1 -1.632,-0.514 1.56,1.56 0 0 1 -0.924,-1.448 1.636,1.636 0 0 1 0.193,-0.782 1.721,1.721 0 0 1 0.527,-0.6 2.122,2.122 0 0 1 0.68,-0.312 3.207,3.207 0 0 1 0.925,-0.128 3.689,3.689 0 0 1 1.3,0.212 1.79,1.79 0 0 1 0.83,0.58 2.281,2.281 0 0 1 0.367,0.979 l -1.046,0.142 a 1.147,1.147 0 0 0 -0.413,-0.762 1.523,1.523 0 0 0 -0.966,-0.271 1.746,1.746 0 0 0 -1.052,0.243 0.707,0.707 0 0 0 -0.315,0.571 0.6,0.6 0 0 0 0.13,0.375 0.947,0.947 0 0 0 0.411,0.285 c 0.105,0.039 0.42,0.129 0.945,0.274 a 13,13 0 0 1 1.583,0.495 1.629,1.629 0 0 1 0.705,0.562 1.584,1.584 0 0 1 0.254,0.916 1.782,1.782 0 0 1 -0.313,1.007 2,2 0 0 1 -0.9,0.732 3.3,3.3 0 0 1 -1.332,0.26 2.97,2.97 0 0 1 -1.876,-0.513 2.373,2.373 0 0 1 -0.821,-1.518 z"
           transform="translate(-3072.273,-3442.14)"
           fill="#174895" />
      </g>
      <g
         id="Group_37196"
         data-name="Group 37196"
         transform="translate(186.723,91.396)">
        <path
           id="Path_42448"
           data-name="Path 42448"
           d="m 3171.444,3450.522 v -0.868 l 4.016,-4.613 c -0.455,0.026 -0.856,0.036 -1.207,0.036 h -2.573 v -0.866 h 5.159 v 0.705 l -3.417,4.006 -0.66,0.732 q 0.719,-0.054 1.351,-0.054 h 2.918 v 0.922 z"
           transform="translate(-3171.444,-3444.211)"
           fill="#174895" />
      </g>
      <g
         id="Group_37197"
         data-name="Group 37197"
         transform="translate(194.321,88.945)">
        <path
           id="Path_42449"
           data-name="Path 42449"
           d="m 3281.393,3411.2 h 1.07 v 6.311 h -1.07 z m -0.053,-0.783 0.791,-1.667 h 1.4 l -1.306,1.667 z"
           transform="translate(-3281.34,-3408.752)"
           fill="#174895" />
      </g>
      <g
         id="Group_37198"
         data-name="Group 37198"
         transform="translate(198.071,91.253)">
        <path
           id="Path_42450"
           data-name="Path 42450"
           d="m 3335.59,3448.595 v -6.311 h 0.964 v 0.955 a 2.618,2.618 0 0 1 0.681,-0.886 1.189,1.189 0 0 1 0.685,-0.212 2.09,2.09 0 0 1 1.1,0.344 l -0.369,0.994 a 1.525,1.525 0 0 0 -0.782,-0.233 1.016,1.016 0 0 0 -0.631,0.212 1.136,1.136 0 0 0 -0.4,0.586 4.151,4.151 0 0 0 -0.177,1.246 v 3.306 z"
           transform="translate(-3335.59,-3442.14)"
           fill="#174895" />
      </g>
      <g
         id="Group_37199"
         data-name="Group 37199"
         transform="translate(202.61,91.254)">
        <path
           id="Path_42451"
           data-name="Path 42451"
           d="m 3402.33,3445.442 a 2.689,2.689 0 0 0 0.529,1.815 1.762,1.762 0 0 0 2.656,0 2.744,2.744 0 0 0 0.531,-1.849 2.6,2.6 0 0 0 -0.533,-1.773 1.762,1.762 0 0 0 -2.653,0 2.674,2.674 0 0 0 -0.53,1.807 z m -1.1,0 a 3.26,3.26 0 0 1 0.973,-2.6 2.945,2.945 0 0 1 1.984,-0.7 2.824,2.824 0 0 1 2.127,0.853 3.231,3.231 0 0 1 0.827,2.355 4.2,4.2 0 0 1 -0.365,1.918 2.6,2.6 0 0 1 -1.064,1.085 3.106,3.106 0 0 1 -1.526,0.385 2.836,2.836 0 0 1 -2.141,-0.85 3.391,3.391 0 0 1 -0.814,-2.446 z"
           transform="translate(-3401.231,-3442.145)"
           fill="#174895" />
      </g>
      <g
         id="Group_37200"
         data-name="Group 37200"
         transform="translate(209.961,91.396)">
        <path
           id="Path_42452"
           data-name="Path 42452"
           d="m 3507.565,3450.522 v -0.868 l 4.016,-4.613 c -0.455,0.026 -0.857,0.036 -1.207,0.036 h -2.574 v -0.866 h 5.158 v 0.705 l -3.417,4.006 -0.66,0.732 q 0.719,-0.054 1.35,-0.054 h 2.918 v 0.922 z"
           transform="translate(-3507.565,-3444.211)"
           fill="#174895" />
      </g>
      <g
         id="Group_37201"
         data-name="Group 37201"
         transform="translate(217.203,88.947)">
        <path
           id="Path_42453"
           data-name="Path 42453"
           d="m 3614.628,3410.442 0.789,-1.665 h 1.4 l -1.306,1.665 z m 2.081,3.928 a 7.753,7.753 0 0 1 -1.749,0.4 4.055,4.055 0 0 0 -0.931,0.216 0.907,0.907 0 0 0 -0.571,0.854 0.908,0.908 0 0 0 0.324,0.714 1.391,1.391 0 0 0 0.946,0.285 2.2,2.2 0 0 0 1.1,-0.271 1.664,1.664 0 0 0 0.708,-0.738 2.6,2.6 0 0 0 0.173,-1.071 z m 0.087,2.388 a 3.955,3.955 0 0 1 -1.142,0.714 3.317,3.317 0 0 1 -1.181,0.21 2.307,2.307 0 0 1 -1.6,-0.51 1.68,1.68 0 0 1 -0.559,-1.3 1.746,1.746 0 0 1 0.211,-0.845 1.724,1.724 0 0 1 0.554,-0.615 2.561,2.561 0 0 1 0.769,-0.351 7.534,7.534 0 0 1 0.949,-0.16 9.818,9.818 0 0 0 1.91,-0.369 c 0,-0.146 0,-0.24 0,-0.28 a 1.181,1.181 0 0 0 -0.3,-0.921 1.793,1.793 0 0 0 -1.218,-0.362 1.885,1.885 0 0 0 -1.115,0.264 1.61,1.61 0 0 0 -0.532,0.937 l -1.046,-0.144 a 2.6,2.6 0 0 1 0.469,-1.085 2.052,2.052 0 0 1 0.945,-0.634 4.24,4.24 0 0 1 1.433,-0.223 3.8,3.8 0 0 1 1.313,0.19 1.754,1.754 0 0 1 0.743,0.477 1.7,1.7 0 0 1 0.333,0.729 5.965,5.965 0 0 1 0.054,0.987 v 1.426 a 14.964,14.964 0 0 0 0.068,1.887 2.348,2.348 0 0 0 0.27,0.758 h -1.116 a 2.289,2.289 0 0 1 -0.208,-0.78 z"
           transform="translate(-3612.315,-3408.777)"
           fill="#174895" />
      </g>
      <g
         id="Group_37202"
         data-name="Group 37202"
         transform="translate(224.721,91.253)">
        <path
           id="Path_42454"
           data-name="Path 42454"
           d="m 3721.057,3446.71 1.059,-0.166 a 1.487,1.487 0 0 0 0.495,0.975 1.735,1.735 0 0 0 1.139,0.339 1.671,1.671 0 0 0 1.094,-0.3 0.9,0.9 0 0 0 0.357,-0.7 0.65,0.65 0 0 0 -0.315,-0.571 4.66,4.66 0 0 0 -1.095,-0.362 10.285,10.285 0 0 1 -1.63,-0.514 1.611,1.611 0 0 1 -0.69,-0.6 1.591,1.591 0 0 1 -0.235,-0.847 1.619,1.619 0 0 1 0.195,-0.782 1.7,1.7 0 0 1 0.527,-0.6 2.1,2.1 0 0 1 0.68,-0.312 3.2,3.2 0 0 1 0.924,-0.128 3.683,3.683 0 0 1 1.3,0.212 1.8,1.8 0 0 1 0.83,0.58 2.281,2.281 0 0 1 0.367,0.979 l -1.046,0.142 a 1.153,1.153 0 0 0 -0.411,-0.762 1.527,1.527 0 0 0 -0.967,-0.271 1.75,1.75 0 0 0 -1.052,0.243 0.707,0.707 0 0 0 -0.315,0.571 0.594,0.594 0 0 0 0.131,0.375 0.945,0.945 0 0 0 0.41,0.285 c 0.107,0.039 0.422,0.129 0.945,0.274 a 13.043,13.043 0 0 1 1.585,0.495 1.626,1.626 0 0 1 0.7,0.562 1.575,1.575 0 0 1 0.254,0.916 1.792,1.792 0 0 1 -0.312,1.007 2.006,2.006 0 0 1 -0.9,0.732 3.29,3.29 0 0 1 -1.332,0.26 2.965,2.965 0 0 1 -1.874,-0.513 2.382,2.382 0 0 1 -0.818,-1.519 z"
           transform="translate(-3721.057,-3442.14)"
           fill="#174895" />
      </g>
      <g
         id="Group_37203"
         data-name="Group 37203"
         transform="translate(231.762,88.947)">
        <path
           id="Path_42455"
           data-name="Path 42455"
           d="m 3825.2,3410.442 0.791,-1.665 h 1.4 l -1.308,1.665 z m 2.08,3.928 a 7.754,7.754 0 0 1 -1.748,0.4 4.075,4.075 0 0 0 -0.932,0.216 0.9,0.9 0 0 0 -0.57,0.854 0.914,0.914 0 0 0 0.322,0.714 1.4,1.4 0 0 0 0.948,0.285 2.2,2.2 0 0 0 1.1,-0.271 1.663,1.663 0 0 0 0.708,-0.738 2.6,2.6 0 0 0 0.171,-1.071 z m 0.088,2.388 a 3.936,3.936 0 0 1 -1.142,0.714 3.311,3.311 0 0 1 -1.181,0.21 2.3,2.3 0 0 1 -1.6,-0.51 1.675,1.675 0 0 1 -0.559,-1.3 1.748,1.748 0 0 1 0.764,-1.46 2.56,2.56 0 0 1 0.769,-0.351 7.609,7.609 0 0 1 0.951,-0.16 9.791,9.791 0 0 0 1.908,-0.369 c 0,-0.146 0.01,-0.24 0.01,-0.28 a 1.18,1.18 0 0 0 -0.3,-0.921 1.8,1.8 0 0 0 -1.219,-0.362 1.893,1.893 0 0 0 -1.115,0.264 1.623,1.623 0 0 0 -0.532,0.937 l -1.045,-0.144 a 2.6,2.6 0 0 1 0.469,-1.085 2.064,2.064 0 0 1 0.946,-0.634 4.237,4.237 0 0 1 1.433,-0.223 3.8,3.8 0 0 1 1.314,0.19 1.757,1.757 0 0 1 0.741,0.477 1.691,1.691 0 0 1 0.333,0.729 5.921,5.921 0 0 1 0.054,0.987 v 1.426 a 14.82,14.82 0 0 0 0.069,1.887 2.385,2.385 0 0 0 0.268,0.758 h -1.116 a 2.328,2.328 0 0 1 -0.214,-0.78 z"
           transform="translate(-3822.89,-3408.777)"
           fill="#174895" />
      </g>
      <g
         id="Group_37204"
         data-name="Group 37204"
         transform="translate(238.882,91.396)">
        <path
           id="Path_42456"
           data-name="Path 42456"
           d="m 3928.284,3450.522 -2.4,-6.311 h 1.13 l 1.356,3.779 c 0.145,0.408 0.28,0.832 0.4,1.272 q 0.142,-0.5 0.4,-1.2 l 1.4,-3.851 h 1.1 l -2.388,6.311 z"
           transform="translate(-3925.882,-3444.211)"
           fill="#174895" />
      </g>
      <g
         id="Group_37205"
         data-name="Group 37205"
         transform="translate(245.941,91.252)">
        <path
           id="Path_42457"
           data-name="Path 42457"
           d="m 4032.37,3445.415 a 7.915,7.915 0 0 1 -1.748,0.4 4.032,4.032 0 0 0 -0.931,0.214 0.943,0.943 0 0 0 -0.424,0.348 0.948,0.948 0 0 0 0.175,1.22 1.4,1.4 0 0 0 0.949,0.286 2.2,2.2 0 0 0 1.1,-0.271 1.67,1.67 0 0 0 0.708,-0.739 2.605,2.605 0 0 0 0.172,-1.071 z m 0.091,2.388 a 4,4 0 0 1 -1.145,0.714 3.334,3.334 0 0 1 -1.178,0.208 2.293,2.293 0 0 1 -1.6,-0.509 1.675,1.675 0 0 1 -0.559,-1.3 1.773,1.773 0 0 1 0.764,-1.461 2.6,2.6 0 0 1 0.771,-0.349 7.685,7.685 0 0 1 0.948,-0.162 9.759,9.759 0 0 0 1.909,-0.369 c 0,-0.145 0.01,-0.24 0.01,-0.279 a 1.183,1.183 0 0 0 -0.3,-0.922 1.792,1.792 0 0 0 -1.219,-0.361 1.883,1.883 0 0 0 -1.113,0.265 1.6,1.6 0 0 0 -0.532,0.935 l -1.046,-0.145 a 2.61,2.61 0 0 1 0.469,-1.083 2.032,2.032 0 0 1 0.945,-0.634 4.2,4.2 0 0 1 1.433,-0.224 3.809,3.809 0 0 1 1.314,0.19 1.751,1.751 0 0 1 0.743,0.479 1.7,1.7 0 0 1 0.333,0.728 6.155,6.155 0 0 1 0.054,0.987 v 1.427 a 14.969,14.969 0 0 0 0.068,1.888 2.407,2.407 0 0 0 0.27,0.758 h -1.118 a 2.305,2.305 0 0 1 -0.218,-0.784 z"
           transform="translate(-4027.978,-3442.128)"
           fill="#174895" />
      </g>
      <g
         id="Group_37206"
         data-name="Group 37206"
         transform="translate(253.88,88.995)">
        <rect
           id="Rectangle_15694"
           data-name="Rectangle 15694"
           width="1.071"
           height="8.7130003"
           fill="#174895"
           x="0"
           y="0" />
      </g>
    </g>
  </g>
</svg>
